<svg width="156" height="163" viewBox="0 0 156 163" fill="none" xmlns="http://www.w3.org/2000/svg">
<path d="M51.2219 22.0683C53.9001 20.7284 57.1475 22.0273 58.1629 24.8447L60.3242 30.8419C60.5694 31.5222 60.9591 32.1411 61.4666 32.6562L65.9411 37.1969C68.043 39.33 67.8111 42.8199 65.4454 44.6561L60.4096 48.565C59.8384 49.0083 59.3702 49.5703 59.0372 50.2121L56.1014 55.8707C54.7222 58.5289 51.3315 59.3868 48.8541 57.7043L43.5804 54.1228C42.9822 53.7166 42.3031 53.445 41.5898 53.3266L35.3009 52.2831C32.3466 51.7928 30.4829 48.8332 31.3175 45.9571L33.094 39.8348C33.2955 39.1404 33.344 38.4105 33.2361 37.6956L32.2852 31.392C31.8385 28.4308 34.0774 25.7438 37.0706 25.6487L43.4423 25.4464C44.165 25.4235 44.8741 25.244 45.5207 24.9205L51.2219 22.0683Z" fill="#C8D5FF"/>
<rect x="20.0605" y="74.1436" width="51.2707" height="30.4694" rx="15.2347" transform="rotate(41.1765 20.0605 74.1436)" fill="#FFB5B5"/>
<path d="M139.12 74.0187C140.194 74.0838 141.218 74.4934 142.04 75.1868L147.288 79.6108C148.1 80.2953 148.672 81.2204 148.923 82.2522L150.585 89.0866C150.831 90.0972 150.755 91.1592 150.369 92.1249L147.718 98.752C147.332 99.7177 146.654 100.539 145.779 101.101L139.863 104.904C138.969 105.478 137.916 105.753 136.857 105.689L130.006 105.274C128.932 105.209 127.908 104.799 127.085 104.105L121.838 99.6815C121.026 98.997 120.453 98.0719 120.202 97.0401L118.541 90.2057C118.295 89.1951 118.37 88.1331 118.757 87.1674L121.408 80.5403C121.794 79.5746 122.472 78.7535 123.347 78.1911L129.263 74.3882C130.157 73.814 131.209 73.5392 132.269 73.6034L139.12 74.0187Z" fill="#D8DCF6"/>
<rect x="114.632" y="152.522" width="45.5581" height="27.0745" rx="5" transform="rotate(167.197 114.632 152.522)" fill="#FFD7D7"/>
<path d="M115.17 19.2151C118.888 18.2189 122.29 21.621 121.294 25.3388L115.016 48.7687C114.02 52.4865 109.372 53.7318 106.651 51.0101L89.4988 33.8583C86.7771 31.1366 88.0224 26.4893 91.7402 25.4931L115.17 19.2151Z" fill="#FFD7D7"/>
</svg>
