<svg width="56" height="55" viewBox="0 0 56 55" fill="none" xmlns="http://www.w3.org/2000/svg">
<path d="M24.4573 2.22591C27.7514 3.77758 31.334 5.22774 33.2366 8.7522C35.1992 12.388 35.2343 16.972 34.7195 21.2364C34.2076 25.4768 32.8176 29.5197 30.3495 32.6675C27.851 35.8541 24.5642 38.1608 20.9239 38.8311C17.3398 39.491 13.8102 38.1265 10.5241 36.3179C7.20522 34.4911 3.97322 32.2005 2.11967 28.4813C0.225525 24.6806 -0.43499 20.0932 0.283213 15.769C0.976711 11.5935 3.29596 8.13007 5.9744 5.27233C8.49845 2.57932 11.564 0.689154 14.9382 0.133013C18.2151 -0.407106 21.3853 0.778911 24.4573 2.22591Z" fill="#EBEFFF"/>
<path d="M34.0006 11.5023C33.7148 11.8521 33.4922 12.239 33.3383 12.6389L26.784 7.28288L19.4556 16.2508C20.6979 15.9554 22.0591 16.2108 23.1255 17.0823C24.9347 18.5606 25.2031 21.2283 23.7247 23.0374C22.2463 24.8465 19.5786 25.1149 17.7695 23.6365C16.703 22.765 16.1781 21.4864 16.2237 20.2058L8.50012 29.6573L15.0501 35.0098C14.6889 35.2403 14.354 35.5355 14.0682 35.8852C12.5898 37.6944 12.8582 40.362 14.6674 41.8404C16.4765 43.3188 19.1441 43.0504 20.6225 41.2413C20.9083 40.8915 21.1309 40.5046 21.2849 40.1047L28.5084 46.0076L35.7168 37.1865C35.9229 38.0534 36.4048 38.8649 37.1474 39.4717C38.9565 40.9501 41.6242 40.6817 43.1026 38.8726C44.5809 37.0635 44.3126 34.3958 42.5034 32.9175C41.7608 32.3106 40.8696 32 39.979 31.9707L46.7923 23.6332L39.5687 17.7303C39.9299 17.4998 40.2648 17.2046 40.5506 16.8548C42.029 15.0457 41.7606 12.378 39.9515 10.8997C38.1423 9.42129 35.4747 9.68968 33.9963 11.4988L34.0006 11.5023Z" fill="#7898FF"/>
</svg>
