<svg width="60" height="50" viewBox="0 0 60 50" fill="none" xmlns="http://www.w3.org/2000/svg">
<path fill-rule="evenodd" clip-rule="evenodd" d="M24.9263 0.561529C32.2021 2.6284 30.5798 11.5548 35.0915 16.6306C38.1982 20.1255 45.3224 20.6925 46.5483 24.8864C47.9309 29.6162 46.1164 35.2681 41.4207 38.2826C36.9338 41.1632 30.5112 39.7691 24.9263 38.7676C20.7284 38.0147 17.8719 35.4941 14.3986 33.4366C9.73585 30.6745 3.32295 29.3318 1.49311 24.8864C-0.8394 19.2199 -0.708524 12.4542 3.82468 7.74845C8.71061 2.67658 17.4418 -1.56462 24.9263 0.561529Z" fill="#E2F5EC"/>
<path d="M22.5562 14.7843C22.5279 15.8005 22.8474 16.8311 23.5425 17.6818C25.0755 19.5577 27.8416 19.836 29.7175 18.303C31.5933 16.7701 31.8716 14.004 30.3387 12.1281C29.6436 11.2775 28.6972 10.759 27.6958 10.5843L35.1993 4.45262L43.7164 14.8752C43.9301 13.9763 44.4298 13.1349 45.1998 12.5056C47.0757 10.9727 49.8418 11.251 51.3747 13.1269C52.9077 15.0027 52.6294 17.7688 50.7535 19.3018C49.9834 19.931 49.0594 20.2531 48.1359 20.2834L54.1579 27.6526L46.6544 33.7844C46.6826 32.7682 46.3631 31.7376 45.668 30.8869C44.1351 29.011 41.369 28.7327 39.4931 30.2657C37.6172 31.7986 37.3389 34.5647 38.8718 36.4406C39.567 37.2912 40.5133 37.8097 41.5147 37.9844L33.4068 44.61L27.3848 37.2408C27.1711 38.1397 26.6715 38.9811 25.9014 39.6103C24.0256 41.1433 21.2595 40.865 19.7265 38.9891C18.1936 37.1132 18.4719 34.3471 20.3478 32.8142C21.1178 32.1849 22.0419 31.8629 22.9653 31.8325L14.4482 21.41L22.5562 14.7843Z" fill="#ADDCC6"/>
</svg>
