<svg width="165" height="306" viewBox="0 0 165 306" fill="none" xmlns="http://www.w3.org/2000/svg">
<mask id="mask0_6911_4830" style="mask-type:alpha" maskUnits="userSpaceOnUse" x="0" y="0" width="165" height="306">
<path d="M0 0H165V306H0V0Z" fill="#D9D9D9"/>
</mask>
<g mask="url(#mask0_6911_4830)">
<path d="M202 102.581C202 141.561 170.4 173.161 131.419 173.161C92.4389 173.161 60.8389 141.561 60.8389 102.581C60.8389 63.6001 92.4389 32.0001 131.419 32.0001C170.4 32.0001 202 63.6001 202 102.581Z" fill="#FFB5B5"/>
<path d="M29.4924 109.142C28.2483 108.141 29.119 106.14 30.1147 102.137L35.0926 103.138C35.0926 103.138 30.7364 110.142 29.4924 109.142Z" fill="#FFB5B5"/>
<path d="M39.5316 95.0347L69.717 98.5859L65.278 117.23L36.8682 103.025L39.5316 95.0347Z" fill="#FFB5B5"/>
<path d="M30.3195 103.224L38.7717 104.111L41.3074 96.1297C41.3074 96.1297 40.6831 83.0411 37.0812 85.4882C35.2226 86.7509 35.214 92.3237 35.214 92.3237C35.214 92.3237 32.0099 82.8278 29.4742 84.6014C26.9386 86.375 30.9878 94.0989 30.9878 94.0989C30.9878 94.0989 21.8673 87.2626 20.1768 90.8089C18.4864 94.3553 29.4742 98.5329 29.4742 98.5329C29.4742 98.5329 21.0222 99.6777 21.022 103.224C21.0219 106.77 30.3195 103.224 30.3195 103.224Z" fill="#FFB5B5"/>
<path d="M92.8005 84.3808C92.8005 88.3033 89.8194 91.4832 86.1419 91.4832C82.4645 91.4832 79.4834 88.3033 79.4834 84.3808C79.4834 80.4582 82.4645 77.2783 86.1419 77.2783C89.8194 77.2783 92.8005 80.4582 92.8005 84.3808Z" fill="white"/>
<path d="M86.7061 84.1796C88.9417 84.7243 90.3623 86.7736 89.879 88.7569C89.3958 90.7401 87.1918 91.9063 84.9561 91.3616C82.7205 90.8168 81.2999 88.7675 81.7832 86.7842C82.2664 84.801 84.4705 83.6348 86.7061 84.1796Z" fill="#616161"/>
<path d="M110.556 63.5171C110.556 67.1945 107.377 70.1756 103.454 70.1756C99.5314 70.1756 96.3516 67.1945 96.3516 63.5171C96.3516 59.8397 99.5314 56.8585 103.454 56.8585C107.377 56.8585 110.556 59.8397 110.556 63.5171Z" fill="white"/>
<path d="M105.968 68.1028C105.025 70.0194 102.676 70.7933 100.719 69.8313C98.7629 68.8694 97.941 66.5358 98.8834 64.6192C99.8259 62.7026 102.176 61.9287 104.132 62.8907C106.088 63.8526 106.91 66.1862 105.968 68.1028Z" fill="#616161"/>
<path fill-rule="evenodd" clip-rule="evenodd" d="M113.985 64.7439C114.26 64.7308 114.495 64.9437 114.508 65.2196C114.95 74.5075 111.88 81.0689 107.335 85.7969C102.807 90.5076 96.8418 93.3717 91.5263 95.3387C91.2674 95.4345 90.9797 95.3023 90.8839 95.0433C90.7881 94.7843 90.9203 94.4967 91.1793 94.4009C96.4434 92.4529 102.242 89.6531 106.614 85.104C110.97 80.5722 113.938 74.2778 113.509 65.2671C113.496 64.9913 113.709 64.7571 113.985 64.7439Z" fill="#616161"/>
</g>
</svg>
