<svg width="173" height="225" viewBox="0 0 173 225" fill="none" xmlns="http://www.w3.org/2000/svg">
<mask id="mask0_6709_5081" style="mask-type:alpha" maskUnits="userSpaceOnUse" x="0" y="0" width="173" height="225">
<rect width="173" height="225" fill="#FF2424"/>
</mask>
<g mask="url(#mask0_6709_5081)">
<path d="M210 95.5807C210 134.561 178.4 166.161 139.419 166.161C100.439 166.161 68.8389 134.561 68.8389 95.5807C68.8389 56.6001 100.439 25.0001 139.419 25.0001C178.4 25.0001 210 56.6001 210 95.5807Z" fill="#FFB5B5"/>
<path d="M37.4924 102.142C36.2483 101.141 37.119 99.1396 38.1147 95.137L43.0926 96.1376C43.0926 96.1376 38.7364 103.142 37.4924 102.142Z" fill="#FFB5B5"/>
<path d="M47.5316 88.0347L77.717 91.5859L73.278 110.23L44.8682 96.0249L47.5316 88.0347Z" fill="#FFB5B5"/>
<path d="M38.3195 96.224L46.7717 97.1108L49.3074 89.1297C49.3074 89.1297 48.6831 76.0411 45.0812 78.4882C43.2226 79.7509 43.214 85.3237 43.214 85.3237C43.214 85.3237 40.0099 75.8278 37.4742 77.6014C34.9386 79.375 38.9878 87.0989 38.9878 87.0989C38.9878 87.0989 29.8673 80.2626 28.1768 83.8089C26.4864 87.3553 37.4742 91.5329 37.4742 91.5329C37.4742 91.5329 29.0222 92.6777 29.022 96.224C29.0219 99.7704 38.3195 96.224 38.3195 96.224Z" fill="#FFB5B5"/>
<path d="M100.8 77.3808C100.8 81.3033 97.8194 84.4832 94.1419 84.4832C90.4645 84.4832 87.4834 81.3033 87.4834 77.3808C87.4834 73.4582 90.4645 70.2783 94.1419 70.2783C97.8194 70.2783 100.8 73.4582 100.8 77.3808Z" fill="white"/>
<path d="M94.7061 77.1796C96.9417 77.7243 98.3623 79.7736 97.879 81.7569C97.3958 83.7401 95.1918 84.9063 92.9561 84.3616C90.7205 83.8168 89.2999 81.7675 89.7832 79.7842C90.2664 77.801 92.4705 76.6348 94.7061 77.1796Z" fill="#616161"/>
<path d="M118.556 56.5171C118.556 60.1945 115.377 63.1756 111.454 63.1756C107.531 63.1756 104.352 60.1945 104.352 56.5171C104.352 52.8397 107.531 49.8585 111.454 49.8585C115.377 49.8585 118.556 52.8397 118.556 56.5171Z" fill="white"/>
<path d="M113.968 61.1028C113.025 63.0194 110.676 63.7933 108.719 62.8313C106.763 61.8694 105.941 59.5358 106.883 57.6192C107.826 55.7026 110.176 54.9287 112.132 55.8907C114.088 56.8526 114.91 59.1862 113.968 61.1028Z" fill="#616161"/>
<path fill-rule="evenodd" clip-rule="evenodd" d="M121.985 57.7439C122.26 57.7308 122.495 57.9437 122.508 58.2196C122.95 67.5075 119.88 74.0689 115.335 78.7969C110.807 83.5076 104.842 86.3717 99.5263 88.3387C99.2674 88.4345 98.9797 88.3023 98.8839 88.0433C98.7881 87.7843 98.9203 87.4967 99.1793 87.4009C104.443 85.4529 110.242 82.6531 114.614 78.104C118.97 73.5722 121.938 67.2778 121.509 58.2671C121.496 57.9913 121.709 57.757 121.985 57.7439Z" fill="#616161"/>
</g>
</svg>
