<svg width="200" height="247" viewBox="0 0 200 247" fill="none" xmlns="http://www.w3.org/2000/svg">
<mask id="mask0_6911_4829" style="mask-type:alpha" maskUnits="userSpaceOnUse" x="0" y="0" width="200" height="247">
<path d="M0 0H200V247H0V0Z" fill="#D9D9D9"/>
</mask>
<g mask="url(#mask0_6911_4829)">
<path d="M236 103.581C236 142.561 204.4 174.161 165.419 174.161C126.439 174.161 94.8389 142.561 94.8389 103.581C94.8389 64.6001 126.439 33.0001 165.419 33.0001C204.4 33.0001 236 64.6001 236 103.581Z" fill="#FFB5B5"/>
<path d="M102.444 173.641C101.128 174.546 99.4608 173.137 95.9128 171.033L98.301 166.553C98.301 166.553 103.759 172.737 102.444 173.641Z" fill="#FFB5B5"/>
<path d="M91.8148 159.973L103.886 132.08L120.469 141.687L98.7034 164.82L91.8148 159.973Z" fill="#FFB5B5"/>
<path d="M97.0133 171.15L100.29 163.308L93.3737 158.587C93.3737 158.587 80.6573 155.426 81.9668 159.579C82.6425 161.722 87.978 163.331 87.978 163.331C87.978 163.331 77.962 163.672 78.9326 166.611C79.9032 169.549 88.4647 167.888 88.4647 167.888C88.4647 167.888 79.2968 174.661 82.2082 177.299C85.1197 179.937 92.2771 170.612 92.2771 170.612C92.2771 170.612 90.9461 179.037 94.343 180.055C97.7399 181.074 97.0133 171.15 97.0133 171.15Z" fill="#FFB5B5"/>
<path d="M126.8 85.3808C126.8 89.3033 123.819 92.4832 120.142 92.4832C116.465 92.4832 113.483 89.3033 113.483 85.3808C113.483 81.4582 116.465 78.2783 120.142 78.2783C123.819 78.2783 126.8 81.4582 126.8 85.3808Z" fill="white"/>
<path d="M122.282 85.1043C124.251 85.584 125.455 87.5805 124.971 89.5638C124.488 91.5471 122.501 92.766 120.532 92.2863C118.564 91.8067 117.36 89.8101 117.843 87.8268C118.326 85.8436 120.314 84.6247 122.282 85.1043Z" fill="#616161"/>
<path d="M144.556 64.5171C144.556 68.1945 141.377 71.1756 137.454 71.1756C133.531 71.1756 130.352 68.1945 130.352 64.5171C130.352 60.8397 133.531 57.8585 137.454 57.8585C141.377 57.8585 144.556 60.8397 144.556 64.5171Z" fill="white"/>
<path d="M141.684 69.173C140.801 70.9687 138.547 71.6682 136.65 70.7355C134.753 69.8027 133.931 67.5909 134.814 65.7953C135.697 63.9996 137.951 63.3001 139.848 64.2328C141.745 65.1655 142.567 67.3773 141.684 69.173Z" fill="#616161"/>
<path fill-rule="evenodd" clip-rule="evenodd" d="M147.142 68.8044C147.413 68.7512 147.676 68.9278 147.729 69.1988C149.7 79.247 147.525 85.6444 143.401 89.7421C139.311 93.8057 133.393 95.5139 128.069 96.4024C127.797 96.4479 127.539 96.2639 127.494 95.9915C127.448 95.7192 127.632 95.4615 127.904 95.416C133.181 94.5355 138.836 92.8682 142.696 89.0327C146.522 85.2314 148.673 79.2063 146.748 69.3913C146.695 69.1203 146.871 68.8575 147.142 68.8044Z" fill="#616161"/>
</g>
</svg>
