<svg width="185" height="225" viewBox="0 0 185 225" fill="none" xmlns="http://www.w3.org/2000/svg">
<mask id="mask0_6709_5080" style="mask-type:alpha" maskUnits="userSpaceOnUse" x="0" y="0" width="185" height="225">
<rect width="185" height="225" fill="#FF2424"/>
</mask>
<g mask="url(#mask0_6709_5080)">
<path d="M208 93.5806C208 132.561 176.4 164.161 137.419 164.161C98.4389 164.161 66.8389 132.561 66.8389 93.5806C66.8389 54.6 98.4389 23 137.419 23C176.4 23 208 54.6 208 93.5806Z" fill="#FFB5B5"/>
<path d="M74.4436 163.641C73.1278 164.545 71.4608 163.137 67.9128 161.033L70.301 156.552C70.301 156.552 75.7594 162.737 74.4436 163.641Z" fill="#FFB5B5"/>
<path d="M63.8148 149.973L75.886 122.08L92.4694 131.686L70.7034 154.819L63.8148 149.973Z" fill="#FFB5B5"/>
<path d="M69.0133 161.149L72.2903 153.308L65.3737 148.587C65.3737 148.587 52.6573 145.426 53.9668 149.579C54.6425 151.722 59.978 153.33 59.978 153.33C59.978 153.33 49.962 153.672 50.9326 156.61C51.9032 159.549 60.4647 157.888 60.4647 157.888C60.4647 157.888 51.2968 164.661 54.2082 167.299C57.1197 169.937 64.2771 160.612 64.2771 160.612C64.2771 160.612 62.9461 169.036 66.343 170.055C69.7399 171.074 69.0133 161.149 69.0133 161.149Z" fill="#FFB5B5"/>
<path d="M98.8005 75.3808C98.8005 79.3033 95.8194 82.4832 92.1419 82.4832C88.4645 82.4832 85.4834 79.3033 85.4834 75.3808C85.4834 71.4582 88.4645 68.2783 92.1419 68.2783C95.8194 68.2783 98.8005 71.4582 98.8005 75.3808Z" fill="white"/>
<path d="M94.2821 75.1043C96.2506 75.584 97.4547 77.5805 96.9714 79.5638C96.4882 81.5471 94.5006 82.766 92.5321 82.2863C90.5636 81.8067 89.3595 79.8101 89.8427 77.8268C90.326 75.8436 92.3135 74.6247 94.2821 75.1043Z" fill="#616161"/>
<path d="M116.556 54.5171C116.556 58.1945 113.377 61.1756 109.454 61.1756C105.531 61.1756 102.352 58.1945 102.352 54.5171C102.352 50.8397 105.531 47.8585 109.454 47.8585C113.377 47.8585 116.556 50.8397 116.556 54.5171Z" fill="white"/>
<path d="M113.684 59.173C112.801 60.9687 110.547 61.6682 108.65 60.7355C106.753 59.8027 105.931 57.5909 106.814 55.7953C107.697 53.9996 109.951 53.3001 111.848 54.2328C113.745 55.1655 114.567 57.3773 113.684 59.173Z" fill="#616161"/>
<path fill-rule="evenodd" clip-rule="evenodd" d="M119.142 58.8044C119.413 58.7512 119.676 58.9278 119.729 59.1988C121.7 69.247 119.525 75.6444 115.401 79.7421C111.311 83.8057 105.393 85.5139 100.069 86.4024C99.7967 86.4479 99.5391 86.2639 99.4936 85.9915C99.4482 85.7192 99.6321 85.4615 99.9045 85.416C105.181 84.5355 110.836 82.8682 114.696 79.0327C118.522 75.2314 120.673 69.2063 118.748 59.3913C118.695 59.1203 118.871 58.8575 119.142 58.8044Z" fill="#616161"/>
</g>
</svg>
