<svg width="151" height="18" viewBox="0 0 151 18" fill="none" xmlns="http://www.w3.org/2000/svg">
<path d="M11.1911 0.265625H1.13731C0.511787 0.265625 0 0.785189 0 1.42021V16.5799C0 17.215 0.511787 17.7345 1.13731 17.7345H4.71982C5.34533 17.7345 5.85712 17.215 5.85712 16.5799V12.1232H10.0197C10.6452 12.1232 11.157 11.6037 11.157 10.9686V8.31309C11.157 7.67807 10.6452 7.1585 10.0197 7.1585H5.85712V5.3689H11.1911C11.8166 5.3689 12.3284 4.84933 12.3284 4.21431V1.42021C12.3284 0.785189 11.8166 0.265625 11.1911 0.265625Z" fill="#424242"/>
<path d="M25.3845 11.1303C26.7493 9.98724 27.5113 8.34773 27.5113 6.4773C27.5113 2.7018 24.9296 0.265625 20.9263 0.265625H15.0123C14.3868 0.265625 13.875 0.785189 13.875 1.42021V16.5799C13.875 17.215 14.3868 17.7345 15.0123 17.7345H18.5948C19.2203 17.7345 19.7321 17.215 19.7321 16.5799V12.8506H19.9255C19.9937 12.8506 20.0619 12.8506 20.1302 12.8506L22.4048 17.1341C22.5981 17.5036 22.9848 17.7345 23.4056 17.7345H27.4203C27.8297 17.7345 28.2164 17.5036 28.4211 17.1341C28.6258 16.7647 28.6145 16.3144 28.387 15.9565L25.3845 11.1187V11.1303ZM21.8703 6.48884C21.8703 7.59725 21.802 8.35927 19.2317 8.50937C19.1635 8.50937 19.0952 8.45164 19.0952 8.38237V4.72233C19.0952 4.65305 19.1635 4.59532 19.2317 4.59532C21.6769 4.78006 21.8703 5.80764 21.8589 6.48884H21.8703Z" fill="#424242"/>
<path d="M34.5518 0.265625H30.9693C30.3412 0.265625 29.832 0.782551 29.832 1.42021V16.5799C29.832 17.2176 30.3412 17.7345 30.9693 17.7345H34.5518C35.18 17.7345 35.6892 17.2176 35.6892 16.5799V1.42021C35.6892 0.782551 35.18 0.265625 34.5518 0.265625Z" fill="#424242"/>
<path d="M49.7344 12.6428H44.2185V10.7262H48.381C49.0065 10.7262 49.5183 10.2066 49.5183 9.57159V8.22072C49.5183 7.5857 49.0065 7.06614 48.381 7.06614H44.2185V5.3689H49.5524C50.1779 5.3689 50.6897 4.84933 50.6897 4.21431V1.42021C50.6897 0.785189 50.1779 0.265625 49.5524 0.265625H39.4986C38.8731 0.265625 38.3613 0.785189 38.3613 1.42021V16.5799C38.3613 17.215 38.8731 17.7345 39.4986 17.7345H49.7344C50.3599 17.7345 50.8717 17.215 50.8717 16.5799V13.7974C50.8717 13.1624 50.3599 12.6428 49.7344 12.6428Z" fill="#424242"/>
<path d="M67.4875 0.265625H64.2348C63.6093 0.265625 63.0975 0.785189 63.0975 1.42021V7.47024L57.7521 0.704368C57.536 0.427267 57.2062 0.277171 56.865 0.277171H53.8512C53.2257 0.277171 52.7139 0.796735 52.7139 1.43176V16.5915C52.7139 17.2265 53.2257 17.7461 53.8512 17.7461H57.0811C57.7066 17.7461 58.2184 17.2265 58.2184 16.5915V10.426L63.5183 17.3073C63.7344 17.5844 64.0642 17.7461 64.4167 17.7461H67.4875C68.113 17.7461 68.6248 17.2265 68.6248 16.5915V1.42021C68.6248 0.785189 68.113 0.265625 67.4875 0.265625Z" fill="#424242"/>
<path d="M77.5761 0.265625H72.4127C71.7872 0.265625 71.2754 0.785189 71.2754 1.42021V16.5799C71.2754 17.215 71.7872 17.7345 72.4127 17.7345H77.6557C83.6265 17.6306 87.3341 14.1668 87.3341 8.68256C87.3341 4.88397 85.6396 0.346446 77.5761 0.277171V0.265625ZM81.2496 9.00584C81.2496 11.4074 79.8166 12.6312 77.1325 12.6312V5.53054C77.1325 5.43817 77.2121 5.35735 77.3145 5.35735C80.1805 5.41508 81.2496 6.41957 81.2496 9.00584Z" fill="#424242"/>
<path d="M102.654 6.33868C101.255 5.88839 100.88 5.64593 100.789 5.51892C100.868 5.40346 101.38 5.161 102.165 5.161C103.575 5.161 105.133 5.65747 105.884 6.13085C106.236 6.35022 106.68 6.36177 107.032 6.15394C107.396 5.94612 107.612 5.56511 107.612 5.14946V2.11289C107.612 1.6857 107.374 1.29314 106.998 1.08531C105.713 0.404105 103.78 0 101.823 0C97.968 0 95.1816 2.47081 95.1816 5.87684C95.1816 9.28287 97.4221 10.5876 99.6171 11.3727C99.9697 11.4997 100.311 11.6036 100.652 11.7075C101.369 11.9384 102.46 12.2848 102.62 12.5042C102.62 12.7004 102.131 12.9314 101.425 12.9314C100.004 12.9314 98.0704 12.4811 97.0013 11.9038C96.6488 11.7075 96.228 11.7191 95.8754 11.9269C95.5342 12.1347 95.3181 12.5157 95.3181 12.9198V15.9102C95.3181 16.3836 95.6024 16.7992 96.0232 16.9724C97.6496 17.6536 99.3442 18 101.062 18C105.463 18 108.204 15.7486 108.204 12.1232C108.204 8.04747 104.576 6.92752 102.642 6.32713L102.654 6.33868Z" fill="#424242"/>
<path d="M125.036 0.265625H121.43C120.805 0.265625 120.293 0.785189 120.293 1.42021V6.26947H115.869V1.42021C115.869 0.785189 115.357 0.265625 114.732 0.265625H111.149C110.524 0.265625 110.012 0.785189 110.012 1.42021V16.5799C110.012 17.215 110.524 17.7345 111.149 17.7345H114.732C115.357 17.7345 115.869 17.215 115.869 16.5799V11.3727H120.293V16.5799C120.293 17.215 120.805 17.7345 121.43 17.7345H125.036C125.661 17.7345 126.173 17.215 126.173 16.5799V1.42021C126.173 0.785189 125.661 0.265625 125.036 0.265625Z" fill="#424242"/>
<path d="M133.542 0.265625H129.96C129.331 0.265625 128.822 0.782551 128.822 1.42021V16.5799C128.822 17.2176 129.331 17.7345 129.96 17.7345H133.542C134.17 17.7345 134.679 17.2176 134.679 16.5799V1.42021C134.679 0.782551 134.17 0.265625 133.542 0.265625Z" fill="#424242"/>
<path d="M144.415 0.265625H138.74C137.978 0.265625 137.353 0.900647 137.353 1.67422V16.3259C137.353 17.0995 137.978 17.7345 138.74 17.7345H141.822C142.584 17.7345 143.21 17.0995 143.21 16.3259V12.8506H143.403C148.646 12.8506 150.989 9.65241 150.989 6.4773C150.989 2.7018 148.407 0.265625 144.404 0.265625H144.415ZM145.939 6.53503C145.939 7.67807 145.848 8.5671 143.346 8.62483C143.198 8.62483 143.062 8.52092 143.062 8.37082V4.8147C143.062 4.6646 143.198 4.54914 143.346 4.56069C145.803 4.7916 145.939 5.86537 145.939 6.52348V6.53503Z" fill="#424242"/>
</svg>
