<svg width="102" height="84" viewBox="0 0 102 84" fill="none" xmlns="http://www.w3.org/2000/svg">
<mask id="mask0_6709_4574" style="mask-type:alpha" maskUnits="userSpaceOnUse" x="0" y="0" width="102" height="84">
<path d="M68.8854 0H33.0998C14.816 0 0 14.8432 0 33.1425V36.185C0 54.4843 14.816 69.3128 33.0998 69.3128H65.1519C69.0477 72.2371 85.3394 84.3185 88.158 83.9936C91.1832 83.6539 84.3802 73.1528 84.513 65.3841C94.9167 59.8013 102 48.8129 102 36.1703V33.1278C102 14.8285 87.184 0 68.9002 0H68.8854Z" fill="white"/>
</mask>
<g mask="url(#mask0_6709_4574)">
<ellipse cx="53.5" cy="35" rx="76.5" ry="49" fill="#7898FF"/>
<path d="M22.3955 43.9449C21.5948 43.3813 22.1551 42.2542 22.796 40L26 40.5636C26 40.5636 23.1962 44.5085 22.3955 43.9449Z" fill="#FFB5B5"/>
<circle cx="63.5" cy="64.5" r="40.5" fill="#7898FF"/>
<circle cx="77.5" cy="52.5" r="40.5" fill="#FFB5B5"/>
</g>
<mask id="mask1_6709_4574" style="mask-type:alpha" maskUnits="userSpaceOnUse" x="0" y="0" width="102" height="84">
<path d="M68.8854 0H33.0998C14.816 0 0 14.8432 0 33.1425V36.185C0 54.4843 14.816 69.3128 33.0998 69.3128H65.1519C69.0477 72.2371 85.3394 84.3185 88.158 83.9936C91.1832 83.6539 84.3802 73.1528 84.513 65.3841C94.9167 59.8013 102 48.8129 102 36.1703V33.1278C102 14.8285 87.184 0 68.9002 0H68.8854Z" fill="white"/>
</mask>
<g mask="url(#mask1_6709_4574)">
<ellipse cx="53.5" cy="35" rx="76.5" ry="49" fill="#7898FF"/>
<path d="M22.3955 43.9449C21.5948 43.3813 22.1551 42.2542 22.796 40L26 40.5636C26 40.5636 23.1962 44.5085 22.3955 43.9449Z" fill="#FFB5B5"/>
<circle cx="63.5" cy="64.5" r="40.5" fill="#7898FF"/>
<circle cx="77.5" cy="52.5" r="40.5" fill="#FFB5B5"/>
</g>
<circle cx="51" cy="38" r="4" fill="white"/>
<path d="M51.9999 38.5C51.9999 39.8807 50.8807 41 49.4999 41C48.1192 41 46.9999 39.8807 46.9999 38.5C46.9999 37.1193 48.1192 36 49.4999 36C50.8807 36 51.9999 37.1193 51.9999 38.5Z" fill="black"/>
<circle cx="61" cy="26" r="4" fill="white"/>
<path d="M61.9999 26.5C61.9999 27.8807 60.8807 29 59.4999 29C58.1192 29 56.9999 27.8807 56.9999 26.5C56.9999 25.1193 58.1192 24 59.4999 24C60.8807 24 61.9999 25.1193 61.9999 26.5Z" fill="black"/>
<path d="M54 44C60.0707 41.7535 67.5 37.5 67 27" stroke="black"/>
<path d="M28.5 36L45.5 38L43 48.5L27 40.5L28.5 36Z" fill="#FFB5B5"/>
<path d="M23.1046 40.6459L28.1046 41.1459L29.6046 36.6459C29.6046 36.6459 29.2353 29.2662 27.1046 30.6459C26.0051 31.3579 26 34.5 26 34.5C26 34.5 24.1046 29.1459 22.6046 30.1459C21.1046 31.1459 23.5 35.5009 23.5 35.5009C23.5 35.5009 18.1046 31.6464 17.1046 33.6459C16.1046 35.6455 22.6046 38.0009 22.6046 38.0009C22.6046 38.0009 17.6047 38.6464 17.6046 40.6459C17.6045 42.6455 23.1046 40.6459 23.1046 40.6459Z" fill="#FFB5B5"/>
</svg>
