<svg width="222" height="227" viewBox="0 0 222 227" fill="none" xmlns="http://www.w3.org/2000/svg">
<path d="M132.955 32.7611C131.681 51.7434 115.785 58.0427 96.7822 56.768C77.7796 55.4934 62.8667 47.1274 64.14 28.1452C65.4133 9.16292 81.3999 1.52105 100.403 2.79571C119.405 4.07037 134.228 13.7789 132.955 32.7611Z" fill="#B5C0F9"/>
<rect x="216.838" y="96.6171" width="82.7554" height="49.1804" rx="5" transform="rotate(167.197 216.838 96.6171)" fill="#FFD7D7"/>
<rect x="46.0665" y="40.5327" width="117.737" height="69.9693" rx="34.9847" transform="rotate(41.1765 46.0665 40.5327)" fill="#FFB5B5"/>
<path d="M99.214 175.003C100.288 175.068 101.312 175.478 102.134 176.171L110.427 183.162C111.239 183.847 111.812 184.772 112.063 185.804L114.676 196.552C114.922 197.562 114.846 198.624 114.46 199.59L110.303 209.981C109.917 210.947 109.239 211.768 108.364 212.331L99.0597 218.311C98.1665 218.885 97.1137 219.16 96.0538 219.096L85.227 218.44C84.1532 218.374 83.129 217.965 82.3066 217.271L74.0139 210.28C73.2021 209.595 72.6292 208.67 72.3783 207.639L69.765 196.891C69.5193 195.88 69.5948 194.818 69.9811 193.852L74.1377 183.461C74.5239 182.495 75.2017 181.674 76.0766 181.112L85.3812 175.131C86.2745 174.557 87.3273 174.282 88.3872 174.347L99.214 175.003Z" fill="#D8DCF6"/>
<circle cx="83.4828" cy="14.1851" r="4.35644" transform="rotate(3.83754 83.4828 14.1851)" fill="white"/>
<circle cx="83.7718" cy="16.3875" r="2.17822" transform="rotate(3.83754 83.7718 16.3875)" fill="black"/>
<circle cx="95.3353" cy="13.2338" r="4.35644" transform="rotate(3.83754 95.3353 13.2338)" fill="white"/>
<circle cx="95.6242" cy="15.4362" r="2.17822" transform="rotate(3.83754 95.6242 15.4362)" fill="black"/>
<circle cx="5.81208" cy="5.81208" r="5.81208" transform="matrix(0.998787 -0.0492365 -0.0492365 -0.998787 100.729 130.308)" fill="white"/>
<circle cx="2.90604" cy="2.90604" r="2.90604" transform="matrix(0.998787 -0.0492365 -0.0492365 -0.998787 103.926 124.331)" fill="black"/>
<circle cx="5.81208" cy="5.81208" r="5.81208" transform="matrix(0.998787 -0.0492365 -0.0492365 -0.998787 92.0123 142.376)" fill="white"/>
<circle cx="2.90604" cy="2.90604" r="2.90604" transform="matrix(0.998787 -0.0492365 -0.0492365 -0.998787 95.2094 136.4)" fill="black"/>
<ellipse cx="3.04259" cy="3.80324" rx="3.04259" ry="3.80324" transform="matrix(1 0 0 -1 99.6273 192.629)" fill="white"/>
<circle cx="1.5213" cy="1.5213" r="1.5213" transform="matrix(1 0 0 -1 102.669 190.499)" fill="black"/>
<ellipse cx="3.04259" cy="3.80324" rx="3.04259" ry="3.80324" transform="matrix(1 0 0 -1 92.6285 192.629)" fill="white"/>
<circle cx="1.5213" cy="1.5213" r="1.5213" transform="matrix(1 0 0 -1 95.6705 190.499)" fill="black"/>
<path d="M144.557 71.3981C144.708 72.0672 144.726 72.7596 144.609 73.4357C144.493 74.1118 144.245 74.7583 143.878 75.3384C143.512 75.9185 143.035 76.4207 142.475 76.8165C141.915 77.2123 141.282 77.4938 140.613 77.645C139.943 77.7963 139.251 77.8142 138.575 77.6978C137.899 77.5815 137.252 77.3331 136.672 76.9669C136.092 76.6006 135.59 76.1237 135.194 75.5634C134.798 75.0031 134.517 74.3702 134.366 73.7011L139.461 72.5496L144.557 71.3981Z" fill="white"/>
<path d="M157.193 68.5426C157.498 69.894 157.254 71.3114 156.514 72.4829C155.775 73.6544 154.6 74.4842 153.249 74.7896C151.897 75.095 150.48 74.851 149.308 74.1114C148.137 73.3718 147.307 72.197 147.002 70.8456L152.097 69.6941L157.193 68.5426Z" fill="white"/>
<circle cx="138.725" cy="75.9292" r="1.67166" transform="rotate(-12.7342 138.725 75.9292)" fill="black"/>
<circle cx="151.361" cy="73.0736" r="1.67166" transform="rotate(-12.7342 151.361 73.0736)" fill="black"/>
<path d="M177.444 121.905C180.122 120.566 183.37 121.864 184.385 124.682L190.79 142.454C191.035 143.134 191.425 143.753 191.933 144.268L205.192 157.724C207.294 159.857 207.062 163.347 204.696 165.183L189.773 176.767C189.202 177.21 188.734 177.772 188.401 178.414L179.701 195.182C178.322 197.841 174.931 198.699 172.454 197.016L156.826 186.403C156.227 185.997 155.548 185.725 154.835 185.607L136.199 182.514C133.244 182.024 131.381 179.064 132.215 176.188L137.48 158.045C137.681 157.351 137.73 156.621 137.622 155.906L134.804 137.226C134.357 134.265 136.596 131.578 139.589 131.483L158.471 130.884C159.194 130.861 159.903 130.681 160.549 130.358L177.444 121.905Z" fill="#C8D5FF"/>
<rect x="144.255" y="143.309" width="11.0064" height="6.221" rx="3.1105" fill="white"/>
<circle cx="146.169" cy="146.658" r="1.91415" fill="black"/>
<rect x="157.655" y="143.308" width="11.0064" height="6.221" rx="3.1105" fill="white"/>
<circle cx="159.569" cy="146.658" r="1.91415" fill="black"/>
</svg>
