<svg width="104" height="107" viewBox="0 0 104 107" fill="none" xmlns="http://www.w3.org/2000/svg">
<g filter="url(#filter0_d_6709_6617)">
<path d="M72.4765 12.2689C72.0641 12.7735 71.7429 13.3319 71.5207 13.9089L62.0632 6.18042L51.4887 19.1207C53.2813 18.6945 55.2454 19.0629 56.7842 20.3205C59.3947 22.4537 59.782 26.303 57.6488 28.9135C55.5155 31.524 51.6662 31.9113 49.0557 29.778C47.5169 28.5205 46.7594 26.6754 46.8251 24.8276L35.6804 38.4656L45.1317 46.1891C44.6105 46.5217 44.1273 46.9477 43.7149 47.4523C41.5817 50.0628 41.969 53.9121 44.5794 56.0454C47.1899 58.1786 51.0392 57.7913 53.1725 55.1808C53.5849 54.6762 53.9061 54.1178 54.1282 53.5408L64.5514 62.0585L74.9528 49.33C75.2502 50.581 75.9456 51.7518 77.0172 52.6275C79.6276 54.7607 83.477 54.3735 85.6102 51.763C87.7434 49.1525 87.3561 45.3032 84.7457 43.17C83.6741 42.2943 82.3882 41.8461 81.1031 41.8039L90.9342 29.7732L80.511 21.2556C81.0322 20.923 81.5154 20.497 81.9278 19.9923C84.061 17.3818 83.6738 13.5325 81.0633 11.3993C78.4528 9.26606 74.6035 9.65332 72.4703 12.2638L72.4765 12.2689Z" fill="#7898FF"/>
</g>
<g filter="url(#filter1_d_6709_6617)">
<path d="M54.5593 51.1181C54.5987 52.5323 54.154 53.9665 53.1867 55.1502C51.0534 57.7607 47.2041 58.148 44.5936 56.0147C41.9831 53.8815 41.5959 50.0322 43.7291 47.4217C44.6964 46.238 46.0133 45.5165 47.407 45.2734L36.965 36.7405L25.1126 51.2445C24.8152 49.9936 24.1199 48.8227 23.0483 47.9471C20.4378 45.8138 16.5885 46.2011 14.4553 48.8116C12.3221 51.4221 12.7093 55.2714 15.3198 57.4046C16.3914 58.2803 17.6773 58.7284 18.9624 58.7707L10.5822 69.0257L21.0242 77.5586C20.9848 76.1445 21.4295 74.7103 22.3968 73.5265C24.53 70.9161 28.3794 70.5288 30.9898 72.662C33.6003 74.7952 33.9876 78.6446 31.8544 81.255C30.887 82.4388 29.5701 83.1602 28.1765 83.4034L39.4595 92.6236L47.8397 82.3686C48.1371 83.6195 48.8324 84.7904 49.904 85.6661C52.5145 87.7993 56.3638 87.412 58.497 84.8016C60.6303 82.1911 60.243 78.3418 57.6325 76.2085C56.5609 75.3328 55.275 74.8847 53.9899 74.8424L65.8423 60.3384L54.5593 51.1181Z" fill="white"/>
</g>
<defs>
<filter id="filter0_d_6709_6617" x="25.6807" y="0.18042" width="75.2539" height="75.878" filterUnits="userSpaceOnUse" color-interpolation-filters="sRGB">
<feFlood flood-opacity="0" result="BackgroundImageFix"/>
<feColorMatrix in="SourceAlpha" type="matrix" values="0 0 0 0 0 0 0 0 0 0 0 0 0 0 0 0 0 0 127 0" result="hardAlpha"/>
<feOffset dy="4"/>
<feGaussianBlur stdDeviation="5"/>
<feComposite in2="hardAlpha" operator="out"/>
<feColorMatrix type="matrix" values="0 0 0 0 0 0 0 0 0 0 0 0 0 0 0 0 0 0 0.1 0"/>
<feBlend mode="normal" in2="BackgroundImageFix" result="effect1_dropShadow_6709_6617"/>
<feBlend mode="normal" in="SourceGraphic" in2="effect1_dropShadow_6709_6617" result="shape"/>
</filter>
<filter id="filter1_d_6709_6617" x="0.582031" y="30.7405" width="75.2607" height="75.8831" filterUnits="userSpaceOnUse" color-interpolation-filters="sRGB">
<feFlood flood-opacity="0" result="BackgroundImageFix"/>
<feColorMatrix in="SourceAlpha" type="matrix" values="0 0 0 0 0 0 0 0 0 0 0 0 0 0 0 0 0 0 127 0" result="hardAlpha"/>
<feOffset dy="4"/>
<feGaussianBlur stdDeviation="5"/>
<feComposite in2="hardAlpha" operator="out"/>
<feColorMatrix type="matrix" values="0 0 0 0 0 0 0 0 0 0 0 0 0 0 0 0 0 0 0.1 0"/>
<feBlend mode="normal" in2="BackgroundImageFix" result="effect1_dropShadow_6709_6617"/>
<feBlend mode="normal" in="SourceGraphic" in2="effect1_dropShadow_6709_6617" result="shape"/>
</filter>
</defs>
</svg>
