<svg width="103" height="107" viewBox="0 0 103 107" fill="none" xmlns="http://www.w3.org/2000/svg">
<g filter="url(#filter0_d_7024_4619)">
<path d="M72.0574 12.2689C71.6475 12.7735 71.3282 13.3319 71.1074 13.9089L61.7069 6.18041L51.196 19.1207C52.9779 18.6944 54.9301 19.0629 56.4597 20.3205C59.0544 22.4537 59.4394 26.303 57.319 28.9135C55.1986 31.524 51.3725 31.9112 48.7777 29.778C47.2481 28.5205 46.4953 26.6754 46.5606 24.8276L35.483 38.4656L44.8774 46.189C44.3593 46.5217 43.879 46.9477 43.4691 47.4523C41.3487 50.0628 41.7337 53.9121 44.3284 56.0453C46.9232 58.1786 50.7493 57.7913 52.8697 55.1808C53.2796 54.6762 53.5989 54.1178 53.8197 53.5408L64.1801 62.0584L74.5188 49.33C74.8144 50.5809 75.5056 51.7518 76.5707 52.6275C79.1655 54.7607 82.9916 54.3735 85.112 51.763C87.2324 49.1525 86.8474 45.3032 84.2527 43.17C83.1875 42.2943 81.9094 41.8461 80.632 41.8039L90.404 29.7732L80.0435 21.2556C80.5616 20.923 81.0419 20.4969 81.4518 19.9923C83.5722 17.3818 83.1872 13.5325 80.5925 11.3993C77.9977 9.26604 74.1716 9.65331 72.0512 12.2638L72.0574 12.2689Z" fill="#BABABA"/>
</g>
<g filter="url(#filter1_d_7024_4619)">
<path d="M54.2487 51.1186C54.2878 52.5327 53.8458 53.967 52.8843 55.1507C50.7639 57.7612 46.9378 58.1485 44.3431 56.0152C41.7483 53.882 41.3634 50.0327 43.4838 47.4222C44.4453 46.2384 45.7542 45.517 47.1395 45.2739L36.7604 36.7409L24.9794 51.245C24.6838 49.9941 23.9927 48.8232 22.9275 47.9475C20.3328 45.8143 16.5067 46.2016 14.3863 48.812C12.2659 51.4225 12.6508 55.2718 15.2456 57.4051C16.3107 58.2808 17.5889 58.7289 18.8663 58.7712L10.5366 69.0262L20.9156 77.5591C20.8765 76.145 21.3185 74.7108 22.28 73.527C24.4003 70.9165 28.2265 70.5293 30.8212 72.6625C33.416 74.7957 33.8009 78.645 31.6805 81.2555C30.719 82.4393 29.4101 83.1607 28.0248 83.4038L39.2399 92.6241L47.5696 82.3691C47.8652 83.62 48.5563 84.7908 49.6215 85.6665C52.2162 87.7998 56.0423 87.4125 58.1627 84.802C60.2831 82.1915 59.8982 78.3422 57.3034 76.209C56.2382 75.3333 54.9601 74.8852 53.6827 74.8429L65.4637 60.3388L54.2487 51.1186Z" fill="white"/>
</g>
<defs>
<filter id="filter0_d_7024_4619" x="25.4834" y="0.18042" width="74.9209" height="75.8781" filterUnits="userSpaceOnUse" color-interpolation-filters="sRGB">
<feFlood flood-opacity="0" result="BackgroundImageFix"/>
<feColorMatrix in="SourceAlpha" type="matrix" values="0 0 0 0 0 0 0 0 0 0 0 0 0 0 0 0 0 0 127 0" result="hardAlpha"/>
<feOffset dy="4"/>
<feGaussianBlur stdDeviation="5"/>
<feComposite in2="hardAlpha" operator="out"/>
<feColorMatrix type="matrix" values="0 0 0 0 0 0 0 0 0 0 0 0 0 0 0 0 0 0 0.1 0"/>
<feBlend mode="normal" in2="BackgroundImageFix" result="effect1_dropShadow_7024_4619"/>
<feBlend mode="normal" in="SourceGraphic" in2="effect1_dropShadow_7024_4619" result="shape"/>
</filter>
<filter id="filter1_d_7024_4619" x="0.536133" y="30.741" width="74.9277" height="75.8831" filterUnits="userSpaceOnUse" color-interpolation-filters="sRGB">
<feFlood flood-opacity="0" result="BackgroundImageFix"/>
<feColorMatrix in="SourceAlpha" type="matrix" values="0 0 0 0 0 0 0 0 0 0 0 0 0 0 0 0 0 0 127 0" result="hardAlpha"/>
<feOffset dy="4"/>
<feGaussianBlur stdDeviation="5"/>
<feComposite in2="hardAlpha" operator="out"/>
<feColorMatrix type="matrix" values="0 0 0 0 0 0 0 0 0 0 0 0 0 0 0 0 0 0 0.1 0"/>
<feBlend mode="normal" in2="BackgroundImageFix" result="effect1_dropShadow_7024_4619"/>
<feBlend mode="normal" in="SourceGraphic" in2="effect1_dropShadow_7024_4619" result="shape"/>
</filter>
</defs>
</svg>
