<svg width="121" height="95" viewBox="0 0 121 95" fill="none" xmlns="http://www.w3.org/2000/svg">
<g filter="url(#filter0_d_7024_4633)">
<path d="M91.8455 33H71.146C60.57 33 52 41.4819 52 51.9386V53.6772C52 64.1339 60.57 72.6073 71.146 72.6073H89.6859C91.9394 74.2784 101.363 81.182 102.993 80.9963C104.743 80.8022 100.808 74.8016 100.885 70.3624C106.903 67.1722 111 60.8931 111 53.6687V51.9301C111 41.4734 102.43 33 91.854 33H91.8455Z" fill="white"/>
</g>
<path d="M78.7816 52.4221C78.7816 50.6662 80.2052 49.2426 81.9611 49.2426C83.7171 49.2426 85.1406 50.6662 85.1406 52.4221C85.1406 54.1781 83.7171 55.6016 81.9611 55.6016C80.2052 55.6016 78.7816 54.1781 78.7816 52.4221Z" fill="#E0E0E0"/>
<path d="M89.9106 52.4219C89.9106 50.6659 91.3341 49.2424 93.09 49.2424C94.846 49.2424 96.2695 50.6659 96.2695 52.4219C96.2695 54.1779 94.846 55.6014 93.09 55.6014C91.3341 55.6014 89.9106 54.1779 89.9106 52.4219Z" fill="#E0E0E0"/>
<path d="M67.6557 52.4221C67.6557 50.6662 69.0792 49.2426 70.8352 49.2426C72.5911 49.2426 74.0146 50.6662 74.0146 52.4221C74.0146 54.1781 72.5911 55.6016 70.8352 55.6016C69.0792 55.6016 67.6557 54.1781 67.6557 52.4221Z" fill="#E0E0E0"/>
<g filter="url(#filter1_d_7024_4633)">
<path d="M29.1545 54H49.854C60.43 54 69 45.5181 69 35.0614V33.3228C69 22.8661 60.43 14.3927 49.854 14.3927H31.3141C29.0606 12.7216 19.637 5.81801 18.0067 6.00368C16.2568 6.19779 20.1918 12.1984 20.115 16.6376C14.0972 19.8278 10 26.1069 10 33.3313V35.0699C10 45.5266 18.57 54 29.146 54H29.1545Z" fill="#BABABA"/>
</g>
<path d="M35.6684 31.6527C35.6684 29.8967 37.0919 28.4732 38.8479 28.4732C40.6038 28.4732 42.0273 29.8967 42.0273 31.6527C42.0273 33.4087 40.6038 34.8322 38.8479 34.8322C37.0919 34.8322 35.6684 33.4087 35.6684 31.6527Z" fill="white"/>
<path d="M46.7973 31.6524C46.7973 29.8964 48.2208 28.4729 49.9768 28.4729C51.7327 28.4729 53.1562 29.8964 53.1562 31.6524C53.1562 33.4084 51.7327 34.8319 49.9768 34.8319C48.2208 34.8319 46.7973 33.4084 46.7973 31.6524Z" fill="white"/>
<path d="M24.5424 31.6527C24.5424 29.8967 25.9659 28.4732 27.7219 28.4732C29.4779 28.4732 30.9014 29.8967 30.9014 31.6527C30.9014 33.4087 29.4779 34.8322 27.7219 34.8322C25.9659 34.8322 24.5424 33.4087 24.5424 31.6527Z" fill="white"/>
<defs>
<filter id="filter0_d_7024_4633" x="42" y="27" width="79" height="68" filterUnits="userSpaceOnUse" color-interpolation-filters="sRGB">
<feFlood flood-opacity="0" result="BackgroundImageFix"/>
<feColorMatrix in="SourceAlpha" type="matrix" values="0 0 0 0 0 0 0 0 0 0 0 0 0 0 0 0 0 0 127 0" result="hardAlpha"/>
<feOffset dy="4"/>
<feGaussianBlur stdDeviation="5"/>
<feComposite in2="hardAlpha" operator="out"/>
<feColorMatrix type="matrix" values="0 0 0 0 0 0 0 0 0 0 0 0 0 0 0 0 0 0 0.1 0"/>
<feBlend mode="normal" in2="BackgroundImageFix" result="effect1_dropShadow_7024_4633"/>
<feBlend mode="normal" in="SourceGraphic" in2="effect1_dropShadow_7024_4633" result="shape"/>
</filter>
<filter id="filter1_d_7024_4633" x="0" y="0" width="79" height="68" filterUnits="userSpaceOnUse" color-interpolation-filters="sRGB">
<feFlood flood-opacity="0" result="BackgroundImageFix"/>
<feColorMatrix in="SourceAlpha" type="matrix" values="0 0 0 0 0 0 0 0 0 0 0 0 0 0 0 0 0 0 127 0" result="hardAlpha"/>
<feOffset dy="4"/>
<feGaussianBlur stdDeviation="5"/>
<feComposite in2="hardAlpha" operator="out"/>
<feColorMatrix type="matrix" values="0 0 0 0 0 0 0 0 0 0 0 0 0 0 0 0 0 0 0.1 0"/>
<feBlend mode="normal" in2="BackgroundImageFix" result="effect1_dropShadow_7024_4633"/>
<feBlend mode="normal" in="SourceGraphic" in2="effect1_dropShadow_7024_4633" result="shape"/>
</filter>
</defs>
</svg>
