<svg width="52" height="57" viewBox="0 0 52 57" fill="none" xmlns="http://www.w3.org/2000/svg">
<path fill-rule="evenodd" clip-rule="evenodd" d="M29.5327 0.561529C36.8085 2.6284 35.1862 11.5548 39.698 16.6306C42.8046 20.1255 49.9288 20.6925 51.1548 24.8864C52.5374 29.6162 50.7228 35.2681 46.0272 38.2826C41.5402 41.1632 35.1176 39.7691 29.5327 38.7676C25.3348 38.0147 22.4784 35.4941 19.0051 33.4366C14.3423 30.6745 7.92939 29.3318 6.09955 24.8864C3.76705 19.2199 3.89792 12.4542 8.43112 7.74845C13.3171 2.67658 22.0483 -1.56462 29.5327 0.561529Z" fill="#FFE0E0"/>
<path d="M37.0503 21.7843C37.0786 22.8005 36.759 23.8311 36.0639 24.6818C34.531 26.5577 31.7649 26.836 29.889 25.303C28.0131 23.7701 27.7348 21.004 29.2678 19.1281C29.9629 18.2775 30.9092 17.759 31.9106 17.5843L24.4071 11.4526L15.89 21.8752C15.6763 20.9763 15.1767 20.1349 14.4066 19.5056C12.5308 17.9727 9.76465 18.251 8.23172 20.1269C6.69879 22.0027 6.97708 24.7688 8.85296 26.3018C9.62301 26.931 10.5471 27.2531 11.4705 27.2834L5.44856 34.6526L12.9521 40.7844C12.9238 39.7682 13.2433 38.7376 13.9385 37.8869C15.4714 36.011 18.2375 35.7327 20.1134 37.2657C21.9892 38.7986 22.2675 41.5647 20.7346 43.4406C20.0395 44.2912 19.0932 44.8097 18.0917 44.9844L26.1996 51.61L32.2216 44.2408C32.4353 45.1397 32.935 45.9811 33.705 46.6103C35.5809 48.1433 38.347 47.865 39.8799 45.9891C41.4128 44.1132 41.1346 41.3471 39.2587 39.8142C38.4886 39.1849 37.5646 38.8629 36.6411 38.8325L45.1582 28.41L37.0503 21.7843Z" fill="#FFB5B5"/>
</svg>
