<svg width="222" height="28" viewBox="0 0 222 28" fill="none" xmlns="http://www.w3.org/2000/svg">
<path d="M0.551758 24.2754V1.88526C0.551758 1.50265 1.43036 1.31842 3.17339 1.31842C3.35761 1.31842 3.64103 1.31842 3.98114 1.3326C4.33541 1.3326 4.57632 1.34677 4.70386 1.34677C5.58246 1.34677 6.90036 1.3326 8.64339 1.29008C10.3864 1.26174 11.7185 1.2334 12.6113 1.2334C13.2206 1.2334 14.1417 1.2334 15.3463 1.26174C16.565 1.29008 17.5003 1.29008 18.1663 1.29008C18.2513 1.29008 18.393 1.29008 18.5631 1.27591C18.7473 1.27591 18.8748 1.26174 18.9599 1.26174C19.3567 1.26174 19.6401 1.3326 19.796 1.48848C19.9518 1.64436 20.0369 1.92778 20.0369 2.36708V8.24804C19.385 8.30472 18.719 8.33306 18.0104 8.3614C17.3019 8.37558 16.4091 8.38975 15.3321 8.40392C14.2551 8.40392 13.5749 8.41809 13.3056 8.41809H10.9958C10.9958 8.63065 10.9958 8.94242 10.9816 9.3392C10.9816 9.73599 10.9674 10.0478 10.9674 10.2603V10.5012C10.9674 10.5012 10.9958 10.6288 10.9958 10.7421C13.5324 10.5579 15.6722 10.4729 17.4294 10.4729C17.9537 10.4729 18.4214 10.5154 18.8323 10.5862C19.2433 10.6571 19.4417 10.7846 19.4417 10.9405V16.5381C19.4417 17.034 19.3425 17.36 19.1583 17.53C18.974 17.7001 18.6764 17.7851 18.2655 17.7851C18.1805 17.7851 18.0104 17.7851 17.7837 17.7568C17.5428 17.7284 17.3585 17.7284 17.231 17.7284C14.9637 17.8701 12.8947 17.9693 11.0383 17.9977C11.0383 18.6779 11.0525 19.7124 11.095 21.0728C11.1233 22.4474 11.1517 23.4818 11.1517 24.1621V26.2452C11.1517 26.5711 11.1233 26.7837 11.0525 26.8971C10.9816 26.9963 10.8116 27.0813 10.5565 27.1238C9.47948 27.1238 7.89233 27.1238 5.79502 27.1521C3.69772 27.1805 2.11057 27.1805 1.03357 27.1805C0.948545 27.0529 0.86352 26.8971 0.806836 26.7412C0.750152 26.5853 0.693468 26.4436 0.665126 26.316C0.636784 26.1885 0.608442 26.0185 0.594271 25.8059C0.5801 25.5933 0.565929 25.4374 0.565929 25.3382C0.565929 25.239 0.565929 25.0548 0.565929 24.7997C0.565929 24.5305 0.565929 24.3604 0.565929 24.3038L0.551758 24.2754Z" fill="white"/>
<path d="M21.6382 4.76085H24.7558C25.7194 4.76085 27.2499 4.73251 29.3614 4.69C31.4728 4.64748 33.0458 4.61914 34.1087 4.61914C35.0156 4.61914 35.8659 4.67582 36.6453 4.77502C37.4388 4.87422 38.2041 5.05844 38.9693 5.32769C39.7345 5.59694 40.3864 5.93704 40.9249 6.348C41.4634 6.75896 41.9027 7.31163 42.2428 7.97766C42.5829 8.65787 42.7388 9.43728 42.7388 10.3159C42.7388 11.5346 42.4554 12.5691 41.8885 13.4335C41.3217 14.2979 40.4431 15.0206 39.2527 15.6158C39.7204 15.8142 40.1313 16.0835 40.4714 16.4094C40.8115 16.7353 41.0808 17.0188 41.265 17.2455C41.4492 17.4864 41.6334 17.869 41.8035 18.4217C41.9735 18.9743 42.0869 19.3428 42.1153 19.5128C42.1436 19.6829 42.2286 20.108 42.3278 20.7882C42.3562 20.9441 42.3845 21.0575 42.3987 21.1425C42.4412 21.596 42.6396 22.4037 42.9655 23.5941C43.3056 24.7845 43.4757 25.6914 43.4757 26.3291C43.4757 26.7259 43.3481 26.9243 43.1072 26.9243C42.4412 26.9243 41.4209 26.9243 40.0605 26.9384C38.7 26.9526 37.6939 26.9526 37.042 26.9526C36.7728 26.9243 36.376 26.9243 35.8375 26.9243H34.7038C34.4771 26.8534 34.2645 26.5133 34.052 25.8898C33.8394 25.2663 33.6835 24.5577 33.5985 23.7783L33.23 20.8024C33.1592 20.5615 33.1167 20.3773 33.0742 20.2781C33.0317 20.1647 32.9608 20.0372 32.8616 19.8955C32.7624 19.7538 32.6207 19.6404 32.4506 19.5837C32.2806 19.527 32.0539 19.4987 31.7846 19.4987H31.0194V26.6409C31.0194 26.6409 31.0194 26.74 31.0052 26.7684C31.0052 26.7967 30.9769 26.8392 30.9769 26.8818C30.9769 26.9243 30.9485 26.9526 30.9344 26.981C30.9202 26.9951 30.8918 27.0235 30.8635 27.0518C30.8352 27.0802 30.8068 27.0943 30.7643 27.1085C30.7218 27.1085 30.6793 27.1368 30.6368 27.1368C30.5801 27.1368 30.5234 27.151 30.4667 27.151H21.6524V4.76085H21.6382ZM31.1186 13.6035C31.1186 13.6035 31.1753 13.6744 31.2178 13.7453C31.2603 13.8161 31.3028 13.8728 31.3453 13.9153C31.3878 13.9578 31.4303 13.9862 31.4728 14.0003C31.813 14.0003 32.1389 13.9578 32.479 13.887C32.8191 13.8161 33.1592 13.6886 33.5135 13.5327C33.8677 13.3626 34.1512 13.1076 34.3637 12.7675C34.5763 12.4274 34.6897 12.0022 34.6897 11.5204C34.6897 10.3584 33.5702 9.77738 31.3453 9.77738C31.1186 9.83406 31.0052 9.91909 31.0052 10.0466V10.6843C31.0052 11.0103 31.0194 11.4921 31.0619 12.1439C31.0902 12.7958 31.1186 13.2776 31.1186 13.6035Z" fill="white"/>
<path d="M44.793 27.1651V5.15753C44.793 5.0725 44.8922 4.98748 45.0622 4.91662C45.2323 4.84577 45.3315 4.78908 45.3598 4.76074H54.3726V26.5699C54.3159 26.8108 54.2592 26.9667 54.2167 27.0517C54.16 27.1367 54.0891 27.1792 53.9758 27.1792H44.793V27.1651Z" fill="white"/>
<path d="M57.4624 6.16428C57.4624 5.49824 57.4908 5.10145 57.5475 4.98809C57.6467 4.8322 57.8026 4.74718 58.0293 4.74718H58.4261C58.6103 4.74718 58.7237 4.74718 58.7945 4.77552H59.6589C60.7926 4.77552 62.4931 4.74718 64.7747 4.69049C67.0562 4.63381 68.7709 4.60547 69.9046 4.60547H74.3543C74.6519 4.63381 74.7936 4.78969 74.7936 5.04477V10.6423C74.7936 10.6423 74.7652 10.7698 74.7369 10.8124C74.7085 10.869 74.6802 10.8974 74.666 10.9116C74.6519 10.9257 74.5952 10.9682 74.5101 11.0249C74.4251 11.0816 74.3543 11.1383 74.3259 11.1666H66.546V13.2498H67.2829C67.9348 13.2498 68.9126 13.2214 70.2447 13.1789C71.5767 13.1364 72.5971 13.1081 73.3056 13.1081C73.6174 13.1081 73.8299 13.1647 73.9433 13.2923C74.0567 13.4198 74.1134 13.5899 74.1134 13.8166C74.1134 13.8733 74.1134 13.9725 74.085 14.1C74.0567 14.2276 74.0567 14.3268 74.0567 14.3834V15.0211C74.0567 15.0211 74.0567 15.1629 74.0708 15.3046C74.085 15.4463 74.085 15.5596 74.085 15.6588V16.1265C74.085 16.3674 74.085 16.6225 74.1134 16.8634C74.1417 17.1043 74.1417 17.3168 74.1417 17.5011V17.9404C74.085 18.0679 74.0425 18.1671 74.0142 18.2096C73.9858 18.2521 73.9291 18.2805 73.8441 18.2805V18.2521C73.4331 18.2521 72.7246 18.2805 71.7043 18.3372C70.6981 18.3938 69.8904 18.4222 69.281 18.4222H66.6027V20.562C66.6878 20.562 66.8295 20.562 66.9995 20.5762C67.1696 20.5903 67.3113 20.5903 67.3963 20.5903C67.8923 20.5903 68.6434 20.5762 69.6212 20.5337C70.599 20.5053 71.3075 20.477 71.7468 20.477H73.8866C74.4676 20.477 74.8361 20.5478 74.992 20.6754C75.0486 20.7462 75.0912 20.8029 75.1195 20.8738V26.2304C75.1195 26.4713 75.077 26.6413 74.992 26.7689C74.9069 26.8964 74.7369 26.9531 74.496 26.9673H57.9017L57.4058 26.528V6.16428H57.4624Z" fill="white"/>
<path d="M99.3092 4.76135C99.4368 4.80386 99.5502 5.00226 99.621 5.34236C99.6919 5.68246 99.7344 6.10759 99.7485 6.61775C99.7485 7.1279 99.7485 7.62389 99.7485 8.09153C99.7485 8.55917 99.7202 9.04099 99.706 9.53697C99.6919 10.033 99.6777 10.3305 99.6777 10.4581C99.6493 10.9116 99.6493 11.5351 99.6493 12.3287V14.1C99.6493 14.8794 99.6493 15.9564 99.6777 17.3168C99.706 18.6773 99.706 19.6834 99.706 20.3353V26.4288C99.6635 26.8114 99.3518 26.9956 98.7707 26.9956H89.3896C89.1912 26.9531 88.9361 26.4855 88.6243 25.5927C88.4118 24.9975 88.0575 24.0339 87.5615 22.6735C87.0655 21.3272 86.6404 20.1369 86.2861 19.1166C85.9318 18.0962 85.6059 17.1043 85.3083 16.1407C85.28 16.8775 85.2375 17.9687 85.2091 19.4283C85.1808 20.8879 85.1383 21.9791 85.1099 22.7018V26.117C85.1099 26.4571 85.0674 26.6839 84.9966 26.8114C84.9115 26.9389 84.7131 27.0381 84.373 27.1232H77.4718L76.7349 26.3863C76.7915 24.5299 76.8341 21.6248 76.8624 17.6711C76.8907 13.7174 76.9474 10.7982 76.9899 8.88511V5.28568C77.1033 4.88889 77.2309 4.67632 77.3867 4.67632V4.74718C78.152 4.74718 79.3423 4.71884 80.9578 4.67632C82.5875 4.63381 83.8062 4.60547 84.6139 4.60547H87.434C87.434 4.60547 87.4623 4.60547 87.4906 4.61964C87.689 4.69049 87.8024 4.78969 87.8307 4.88889V5.00226C88.2559 6.07925 88.6527 7.21293 89.0778 8.37495C89.4888 9.53697 89.9847 10.9399 90.5516 12.5837C91.1184 14.2276 91.5152 15.3612 91.7419 15.9989V13.519C91.9687 9.59366 92.082 6.7878 92.082 5.14397C92.082 4.95974 92.2096 4.84638 92.4505 4.80386C92.6914 4.76135 93.074 4.73301 93.5842 4.73301H99.3092V4.76135Z" fill="white"/>
<path d="M112.29 4.54933C113.821 4.54933 115.195 4.64852 116.414 4.84692C117.633 5.04531 118.809 5.39959 119.928 5.92391C121.048 6.43407 121.983 7.11428 122.734 7.93619C123.485 8.75811 124.08 9.8351 124.52 11.153C124.959 12.4709 125.186 14.0014 125.186 15.7444C125.186 17.0198 125.03 18.2102 124.732 19.3013C124.435 20.3925 124.024 21.3419 123.485 22.1355C122.961 22.9291 122.366 23.6376 121.685 24.2612C121.005 24.8847 120.268 25.3807 119.489 25.7775C118.695 26.1743 117.902 26.4718 117.108 26.6844C116.315 26.897 115.521 27.0245 114.728 27.067H103.235V4.81858C103.235 4.81858 103.334 4.81858 103.419 4.83275C103.504 4.84692 103.575 4.84692 103.603 4.84692C104.085 4.84692 104.808 4.79023 105.786 4.69104C106.763 4.59184 107.5 4.53516 107.982 4.53516H112.276L112.29 4.54933ZM112.489 21.8379C113.055 21.8379 113.566 21.7387 113.991 21.5545C114.43 21.3703 114.77 21.101 115.039 20.7609C115.309 20.4208 115.521 20.0524 115.691 19.6698C115.861 19.2872 115.989 18.8479 116.074 18.3235C116.145 17.8134 116.201 17.3599 116.23 16.9773C116.258 16.5947 116.272 16.1554 116.272 15.6594V14.4548C116.272 14.3698 116.23 14.0014 116.173 13.3212C116.116 12.641 115.989 12.0599 115.805 11.5781C115.62 11.238 115.422 10.9263 115.209 10.6854C114.997 10.4303 114.77 10.2319 114.557 10.1044C114.345 9.97681 114.09 9.86345 113.806 9.79259C113.523 9.72174 113.268 9.67922 113.027 9.65088C112.786 9.62254 112.503 9.62254 112.177 9.62254V9.99099H111.681V21.8521H112.489V21.8379Z" fill="white"/>
<path d="M148.469 27.0808C147.151 27.0241 145.961 26.9107 144.912 26.7407C143.863 26.5706 142.843 26.2872 141.865 25.9046C140.887 25.5219 140.065 25.026 139.399 24.445C138.733 23.8639 138.181 23.1129 137.741 22.1918C137.302 21.2707 137.033 20.222 136.934 19.0033C136.934 18.7907 137.047 18.6632 137.274 18.6348C137.345 18.6632 137.458 18.6632 137.614 18.6632C138.535 18.6632 139.952 18.6348 141.837 18.5923C143.721 18.5498 145.124 18.5215 146.06 18.5215C146.301 18.5215 146.485 18.5923 146.612 18.7482C146.74 18.9041 146.853 19.0883 146.938 19.3009C147.023 19.5134 147.123 19.7402 147.236 19.9527C147.349 20.1653 147.548 20.3495 147.845 20.5054C148.143 20.6613 148.497 20.7322 148.936 20.7322C149.489 20.7322 149.971 20.5763 150.382 20.2645C150.793 19.9527 151.005 19.5418 151.005 19.0175C151.005 18.6774 150.821 18.3514 150.467 18.068C150.113 17.7704 149.631 17.5437 149.05 17.3595C148.469 17.1752 147.902 17.0194 147.378 16.8918C146.853 16.7643 146.301 16.6509 145.748 16.5517C145.195 16.4525 144.869 16.3958 144.77 16.3817C142.049 15.6448 140.108 14.7237 138.918 13.6325C137.727 12.5413 137.132 11.0392 137.132 9.14029C137.132 7.79404 137.373 6.60368 137.869 5.52668C138.365 4.44969 139.003 3.58526 139.796 2.91922C140.59 2.23902 141.525 1.67218 142.616 1.23288C143.693 0.779404 144.798 0.467643 145.904 0.28342C147.009 0.0991969 148.157 0 149.333 0C152.465 0 154.973 0.58101 156.844 1.74303C157.524 2.42324 158.02 2.94757 158.346 3.28767C158.658 3.64194 158.969 4.0529 159.267 4.52054C159.565 4.98819 159.763 5.45583 159.891 5.9093C160.018 6.36277 160.089 6.91544 160.132 7.58148L159.522 8.19083C157.226 8.27586 154.661 8.31837 151.813 8.31837C151.459 8.31837 151.161 8.27586 150.949 8.205C150.736 8.11998 150.58 8.02078 150.509 7.90741C150.439 7.77987 150.368 7.65233 150.297 7.52479C150.226 7.39725 150.155 7.26972 150.098 7.14218C150.042 7.01464 149.914 6.91544 149.716 6.84459C149.517 6.75956 149.262 6.73122 148.936 6.73122C148.851 6.73122 148.71 6.74539 148.511 6.7879C148.313 6.81624 148.086 6.87293 147.831 6.94378C147.562 7.01464 147.349 7.12801 147.151 7.28389C146.967 7.43977 146.867 7.60982 146.867 7.80821C146.867 8.04912 146.995 8.27586 147.25 8.47425C147.505 8.67264 147.76 8.82852 148.044 8.91355C148.327 8.99858 148.667 9.09777 149.078 9.21114C149.489 9.32451 149.744 9.38119 149.843 9.42371C152.281 10.0331 153.726 10.4157 154.194 10.5574C156.645 11.3226 158.374 12.3429 159.395 13.59C160.33 14.752 160.798 16.2116 160.798 17.9688C160.798 19.0316 160.656 19.9953 160.387 20.8739C160.117 21.7383 159.749 22.4752 159.31 23.0845C158.856 23.6797 158.303 24.2182 157.637 24.6859C156.971 25.1535 156.291 25.5219 155.597 25.8054C154.917 26.0888 154.137 26.3155 153.259 26.5139C152.394 26.6981 151.586 26.8398 150.85 26.9249C150.113 27.0099 149.319 27.0666 148.469 27.1233V27.0808Z" fill="white"/>
<path d="M184.194 5.07198V25.6766C184.194 25.9175 184.194 26.1017 184.166 26.2434C184.151 26.3851 184.109 26.5127 184.024 26.6402C183.939 26.7678 183.84 26.8244 183.684 26.8244H175.139V26.456C175.139 26.456 175.025 26.3851 174.884 26.3001C174.728 26.2151 174.643 26.1442 174.6 26.0876V19.3138C174.6 19.0729 174.586 18.9312 174.543 18.9029C174.501 18.8745 174.345 18.8462 174.062 18.8462H172.928C172.659 18.8462 172.347 18.8745 171.993 18.917V26.1584C171.95 26.3568 171.865 26.4843 171.738 26.541C171.61 26.5977 171.412 26.6261 171.157 26.6261H170.391C169.867 26.6261 169.045 26.6261 167.926 26.6544C166.806 26.6827 165.956 26.6827 165.375 26.6827H163.164C162.682 26.6827 162.441 26.4135 162.441 25.875L162.541 4.76022C162.541 4.76022 162.555 4.66102 162.597 4.61851C162.626 4.576 162.696 4.51931 162.796 4.44846C162.895 4.3776 162.952 4.33509 162.966 4.32092H171.978V11.5198H174.898V4.16504H183.443C183.712 4.16504 183.91 4.22172 184.024 4.34926C184.137 4.4768 184.208 4.71771 184.208 5.07198H184.194Z" fill="white"/>
<path d="M187.141 26.7837V4.76202C187.141 4.677 187.24 4.59197 187.41 4.52112C187.58 4.45026 187.68 4.39358 187.708 4.36523H196.721V26.1744C196.664 26.4153 196.607 26.5712 196.565 26.6562C196.508 26.7412 196.437 26.7837 196.324 26.7837H187.141Z" fill="white"/>
<path d="M200.15 26.7553L199.795 15.5886C199.795 14.8234 199.795 13.9448 199.824 12.9812C199.852 12.0175 199.88 11.1389 199.909 10.3453C199.937 9.56594 199.965 8.67317 199.994 7.6812C200.022 6.68923 200.036 5.78229 200.036 4.96037C200.036 4.73364 200.107 4.59193 200.263 4.53524C200.419 4.47856 200.603 4.45022 200.83 4.47856C201.057 4.5069 201.312 4.47856 201.609 4.42188H213.598C214.278 4.42188 214.958 4.5069 215.639 4.67695C216.319 4.847 216.985 5.13042 217.637 5.51304C218.289 5.89566 218.87 6.3633 219.366 6.91597C219.862 7.46864 220.258 8.16302 220.57 8.98493C220.882 9.80685 221.038 10.728 221.038 11.7199C221.038 13.0378 220.754 14.214 220.202 15.2343C219.649 16.2546 218.799 17.2183 217.693 18.1252C216.319 18.8338 214.661 19.2589 212.734 19.3723H212.195C211.742 19.4573 211.302 19.4998 210.849 19.4998H209.503C209.503 19.4998 209.375 19.4998 209.332 19.5281C209.332 22.4474 209.375 24.6722 209.46 26.1602C209.403 26.3869 209.29 26.5286 209.106 26.6136C208.922 26.6987 208.61 26.727 208.156 26.727H200.121L200.15 26.7553ZM208.525 13.9589V14.2565C208.525 14.2565 208.61 14.2991 208.751 14.3699C208.893 14.4266 208.964 14.4691 208.964 14.4974V14.5258C208.964 14.5258 208.936 14.4974 208.936 14.4549C208.964 14.4833 209.021 14.4833 209.134 14.4833C210.126 14.4833 210.962 14.2565 211.657 13.8172C212.337 13.3638 212.691 12.6836 212.691 11.7341C212.691 11.309 212.62 10.9405 212.478 10.6429C212.337 10.3453 212.152 10.1044 211.954 9.94856C211.742 9.77851 211.472 9.66514 211.118 9.58011C210.764 9.49509 210.452 9.4384 210.154 9.42423C209.857 9.41006 209.503 9.39589 209.049 9.39589C209.049 9.39589 208.992 9.45258 208.922 9.50926C208.836 9.58011 208.794 9.62263 208.751 9.66514V11.4082C208.624 12.4852 208.553 13.3354 208.553 13.9589H208.525Z" fill="white"/>
</svg>
