<svg width="102" height="105" viewBox="0 0 102 105" fill="none" xmlns="http://www.w3.org/2000/svg">
<path d="M63.5218 0.752368C66.2001 -0.587538 69.4475 0.711415 70.4628 3.52875L79.8482 29.5709C80.0933 30.2512 80.4831 30.8701 80.9906 31.3851L100.42 51.1026C102.522 53.2357 102.29 56.7255 99.9244 58.5618L78.057 75.5353C77.4859 75.9786 77.0176 76.5406 76.6847 77.1824L63.9363 101.754C62.5571 104.412 59.1664 105.27 56.689 103.588L33.7889 88.0356C33.1907 87.6293 32.5116 87.3577 31.7983 87.2393L4.48993 82.7079C1.53561 82.2177 -0.328078 79.2581 0.506484 76.382L8.22079 49.7968C8.42228 49.1024 8.47078 48.3726 8.36292 47.6576L4.23379 20.2855C3.78709 17.3243 6.02596 14.6373 9.01917 14.5422L36.687 13.6637C37.4097 13.6408 38.1188 13.4614 38.7654 13.1378L63.5218 0.752368Z" fill="#C9CEDD"/>
</svg>
