<svg width="378" height="291" viewBox="0 0 378 291" fill="none" xmlns="http://www.w3.org/2000/svg">
<circle cx="329.031" cy="247.398" r="202" transform="rotate(15 329.031 247.398)" fill="#FFB5B5"/>
<circle cx="231.067" cy="169.34" r="19.9506" transform="rotate(15 231.067 169.34)" fill="white"/>
<path d="M237.948 167.404C236.166 174.056 229.328 178.003 222.676 176.221C216.025 174.439 212.077 167.601 213.859 160.949C215.642 154.298 222.479 150.35 229.131 152.132C235.783 153.915 239.73 160.752 237.948 167.404Z" fill="black"/>
<circle cx="292.067" cy="120.434" r="19.9506" transform="rotate(15 292.067 120.434)" fill="white"/>
<path d="M298.948 118.499C297.166 125.151 290.328 129.098 283.676 127.316C277.025 125.533 273.077 118.696 274.859 112.044C276.642 105.392 283.479 101.445 290.131 103.227C296.783 105.01 300.73 111.847 298.948 118.499Z" fill="black"/>
<path d="M242.59 203.406C280.632 210.5 318.132 182.5 322.348 136.996" stroke="black" stroke-width="3" stroke-linecap="round"/>
<path d="M31.9686 197.055C27.972 192.722 32.7005 186.8 39.3333 174.348L57.4724 181.732C57.4724 181.732 35.9653 201.387 31.9686 197.055Z" fill="#FFB5B5"/>
<path d="M78.0063 157.921L175.508 191.269L147.468 249.886L63.467 182.498L78.0063 157.921Z" fill="#FFB5B5"/>
<path d="M40.3544 178.416L69.1433 187.705L83.6826 163.128C83.6826 163.128 90.877 119.231 76.587 124.646C69.2132 127.44 65.1946 145.924 65.1946 145.924C65.1946 145.924 60.8369 112.011 50.7405 115.991C40.644 119.972 49.212 148.641 49.212 148.641C49.212 148.641 22.3546 119.109 13.9317 129.606C5.50881 140.104 40.7694 162.216 40.7694 162.216C40.7694 162.216 10.5272 159.667 7.98842 171.434C5.44968 183.201 40.3544 178.416 40.3544 178.416Z" fill="#FFB5B5"/>
</svg>
