<svg width="192" height="192" viewBox="0 0 192 192" fill="none" xmlns="http://www.w3.org/2000/svg">
<path d="M123.951 1.60605C126.66 -0.153036 130.301 1.07961 131.384 4.12253L143.528 38.2322C144.11 39.8682 145.5 41.0848 147.199 41.4459L182.614 48.9751C185.773 49.6468 187.476 53.0931 186.091 56.0108L170.558 88.7168C169.813 90.2854 169.936 92.1283 170.882 93.5848L190.6 123.951C192.359 126.66 191.126 130.301 188.084 131.385L153.974 143.528C152.338 144.111 151.121 145.5 150.76 147.199L143.231 182.614C142.559 185.774 139.113 187.477 136.195 186.091L103.489 170.559C101.921 169.814 100.078 169.936 98.6213 170.882L68.2549 190.6C65.5459 192.359 61.9048 191.127 60.8215 188.084L48.6779 153.974C48.0954 152.338 46.7059 151.121 45.0072 150.76L9.5919 143.231C6.4325 142.559 4.72946 139.113 6.11511 136.195L21.6475 103.489C22.3924 101.921 22.2701 100.078 21.3244 98.6214L1.60592 68.255C-0.153164 65.546 1.07948 61.9049 4.1224 60.8216L38.2321 48.678C39.868 48.0956 41.0847 46.706 41.4458 45.0074L48.975 9.59203C49.6467 6.43263 53.093 4.72959 56.0107 6.11523L88.7167 21.6476C90.2853 22.3926 92.1282 22.2702 93.5846 21.3245L123.951 1.60605Z" fill="#ACBFFA"/>
</svg>
