<svg width="155" height="116" viewBox="0 0 155 116" fill="none" xmlns="http://www.w3.org/2000/svg">
<path d="M86.951 -74.394C89.66 -76.153 93.3011 -74.9204 94.3845 -71.8775L106.528 -37.7678C107.11 -36.1318 108.5 -34.9152 110.199 -34.5541L145.614 -27.0249C148.773 -26.3532 150.476 -22.9069 149.091 -19.9892L133.558 12.7168C132.814 14.2854 132.936 16.1283 133.882 17.5848L153.6 47.9512C155.359 50.6602 154.126 54.3012 151.084 55.3846L116.974 67.5282C115.338 68.1106 114.121 69.5002 113.76 71.1988L106.231 106.614C105.559 109.774 102.113 111.477 99.1953 110.091L66.4893 94.5586C64.9206 93.8136 63.0778 93.9359 61.6213 94.8817L31.2549 114.6C28.5459 116.359 24.9048 115.127 23.8215 112.084L11.6779 77.974C11.0954 76.338 9.70585 75.1214 8.00724 74.7603L-27.4081 67.231C-30.5675 66.5594 -32.2705 63.1131 -30.8849 60.1954L-15.3525 27.4894C-14.6076 25.9207 -14.7299 24.0779 -15.6756 22.6214L-35.3941 -7.74497C-37.1532 -10.454 -35.9205 -14.0951 -32.8776 -15.1784L1.23206 -27.322C2.86805 -27.9044 4.08466 -29.294 4.44578 -30.9926L11.975 -66.408C12.6467 -69.5674 16.093 -71.2704 19.0107 -69.8848L51.7167 -54.3524C53.2853 -53.6074 55.1282 -53.7298 56.5846 -54.6755L86.951 -74.394Z" fill="#D3DEFF" fill-opacity="0.54"/>
</svg>
