<svg width="86" height="86" viewBox="0 0 86 86" fill="none" xmlns="http://www.w3.org/2000/svg">
<path d="M43 0C66.748 0 86 19.2517 86 43C86 66.748 66.748 86 43 86C19.2517 86 0 66.748 0 43C0 19.2517 19.2517 0 43 0ZM56.8447 29.9696L37.625 49.189L29.1554 40.7197C27.896 39.4602 25.854 39.4602 24.5946 40.7197C23.3352 41.9792 23.3352 44.0208 24.5946 45.2803L35.3447 56.0303C36.6042 57.2898 38.6458 57.2898 39.9053 56.0303L61.4053 34.5303C62.6648 33.271 62.6648 31.229 61.4053 29.9696C60.1458 28.7102 58.1042 28.7102 56.8447 29.9696Z" fill="#7898FF"/>
</svg>
