<svg width="90" height="90" viewBox="0 0 90 90" fill="none" xmlns="http://www.w3.org/2000/svg">
<path d="M90 45C90 69.8528 69.8528 90 45 90C20.1472 90 0 69.8528 0 45C0 20.1472 20.1472 0 45 0C69.8528 0 90 20.1472 90 45Z" fill="#FFB5B5"/>
<path d="M27.7833 49.315C23.473 46.0012 22.6651 39.8207 25.9788 35.5104C29.2926 31.2001 35.4731 30.3922 39.7834 33.706C44.0937 37.0197 44.9016 43.2002 41.5878 47.5105C38.2741 51.8209 32.0936 52.6287 27.7833 49.315Z" fill="white"/>
<path d="M33.1231 48.207C30.9679 46.5502 30.564 43.4599 32.2209 41.3048C33.8777 39.1496 36.968 38.7457 39.1231 40.4026C41.2783 42.0594 41.6822 45.1497 40.0254 47.3048C38.3685 49.46 35.2782 49.8639 33.1231 48.207Z" fill="black"/>
<path d="M52.9942 48.8275C48.6839 45.5138 47.876 39.3333 51.1898 35.023C54.5035 30.7127 60.684 29.9048 64.9943 33.2186C69.3046 36.5323 70.1125 42.7128 66.7988 47.0231C63.485 51.3334 57.3045 52.1413 52.9942 48.8275Z" fill="white"/>
<path d="M52.9932 48.207C50.838 46.5502 50.4341 43.4599 52.091 41.3048C53.7479 39.1496 56.8381 38.7457 58.9933 40.4026C61.1484 42.0594 61.5523 45.1497 59.8955 47.3048C58.2386 49.46 55.1483 49.8639 52.9932 48.207Z" fill="black"/>
<path fill-rule="evenodd" clip-rule="evenodd" d="M21.2137 35.696C20.8003 35.6703 20.486 35.3143 20.5117 34.9009C20.7424 31.1909 21.9045 27.9804 24.2674 25.7829C26.6388 23.5774 30.1026 22.5008 34.7049 22.8247C35.1181 22.8538 35.4295 23.2124 35.4004 23.6255C35.3713 24.0387 35.0128 24.3501 34.5996 24.321C30.2803 24.017 27.2714 25.0375 25.2889 26.8813C23.2978 28.733 22.2246 31.5237 22.0088 34.994C21.9831 35.4074 21.6271 35.7217 21.2137 35.696Z" fill="#8A8181"/>
<path fill-rule="evenodd" clip-rule="evenodd" d="M37.7526 66.1985C37.3478 66.111 37.0904 65.712 37.1778 65.3071C37.9623 61.6736 39.5927 58.6737 42.2584 56.8554C44.9338 55.0305 48.5199 54.4855 53.0215 55.496C53.4257 55.5867 53.6798 55.9879 53.589 56.3921C53.4983 56.7962 53.0971 57.0503 52.693 56.9596C48.4682 56.0112 45.3402 56.569 43.1036 58.0946C40.8574 59.6267 39.3778 62.2249 38.644 65.6236C38.5566 66.0285 38.1575 66.2859 37.7526 66.1985Z" fill="#8A8181"/>
<path fill-rule="evenodd" clip-rule="evenodd" d="M69.1107 29.995C69.4735 29.795 69.6054 29.3388 69.4055 28.9761C67.6109 25.7208 65.1879 23.3152 62.1124 22.3387C59.0257 21.3587 55.4341 21.8662 51.4121 24.1265C51.051 24.3294 50.9228 24.7867 51.1257 25.1478C51.3286 25.5089 51.7858 25.6371 52.1469 25.4342C55.9217 23.3129 59.0781 22.9491 61.6585 23.7684C64.25 24.5912 66.4132 26.6553 68.0918 29.7002C68.2918 30.063 68.748 30.1949 69.1107 29.995Z" fill="#8A8181"/>
<path d="M37.4021 51.4286C37.4021 52.0741 34.5239 52.5974 30.9735 52.5974C27.4231 52.5974 24.5449 52.0741 24.5449 51.4286C24.5449 50.7831 27.4231 50.2598 30.9735 50.2598C34.5239 50.2598 37.4021 50.7831 37.4021 51.4286Z" fill="white"/>
<path d="M67.7927 51.4286C67.7927 52.0741 64.9145 52.5974 61.3641 52.5974C57.8137 52.5974 54.9355 52.0741 54.9355 51.4286C54.9355 50.7831 57.8137 50.2598 61.3641 50.2598C64.9145 50.2598 67.7927 50.7831 67.7927 51.4286Z" fill="white"/>
</svg>
