<svg width="52" height="55" viewBox="0 0 52 55" fill="none" xmlns="http://www.w3.org/2000/svg">
<path d="M24.4573 2.22591C27.7514 3.77758 31.334 5.22774 33.2366 8.7522C35.1992 12.388 35.2343 16.972 34.7195 21.2364C34.2076 25.4768 32.8176 29.5197 30.3495 32.6675C27.851 35.8541 24.5642 38.1608 20.9239 38.8311C17.3398 39.491 13.8102 38.1265 10.5241 36.3179C7.20522 34.4911 3.97322 32.2005 2.11967 28.4813C0.225525 24.6806 -0.43499 20.0932 0.283213 15.769C0.976711 11.5935 3.29596 8.13007 5.9744 5.27233C8.49845 2.57932 11.564 0.689154 14.9382 0.133013C18.2151 -0.407106 21.3853 0.778911 24.4573 2.22591Z" fill="#FFF7DA"/>
<path d="M22.5463 11.5023C22.832 11.8521 23.0547 12.239 23.2086 12.6389L29.7629 7.28288L37.0913 16.2508C35.8489 15.9554 34.4878 16.2108 33.4213 17.0823C31.6122 18.5606 31.3438 21.2283 32.8222 23.0374C34.3006 24.8465 36.9682 25.1149 38.7774 23.6365C39.8438 22.765 40.3687 21.4864 40.3232 20.2058L48.0468 29.6573L41.4968 35.0098C41.858 35.2403 42.1929 35.5355 42.4787 35.8852C43.957 37.6944 43.6886 40.362 41.8795 41.8404C40.0704 43.3188 37.4027 43.0504 35.9244 41.2413C35.6386 40.8915 35.416 40.5046 35.262 40.1047L28.0385 46.0076L20.8301 37.1865C20.624 38.0534 20.1421 38.8649 19.3995 39.4717C17.5903 40.9501 14.9227 40.6817 13.4443 38.8726C11.9659 37.0635 12.2343 34.3958 14.0434 32.9175C14.7861 32.3106 15.6772 32 16.5678 31.9707L9.75461 23.6332L16.9781 17.7303C16.6169 17.4998 16.2821 17.2046 15.9963 16.8548C14.5179 15.0457 14.7863 12.378 16.5954 10.8997C18.4045 9.42129 21.0722 9.68968 22.5506 11.4988L22.5463 11.5023Z" fill="#FFE58A"/>
</svg>
