<svg width="378" height="291" viewBox="0 0 378 291" fill="none" xmlns="http://www.w3.org/2000/svg">
<circle cx="329.031" cy="247.398" r="202" transform="rotate(15 329.031 247.398)" fill="#FFB5B5"/>
<circle cx="231.066" cy="169.34" r="19.9506" transform="rotate(15 231.066 169.34)" fill="white"/>
<path d="M237.947 167.404C236.165 174.056 229.327 178.003 222.675 176.221C216.024 174.439 212.076 167.601 213.858 160.949C215.641 154.298 222.478 150.35 229.13 152.132C235.782 153.915 239.729 160.752 237.947 167.404Z" fill="black"/>
<circle cx="292.066" cy="120.434" r="19.9506" transform="rotate(15 292.066 120.434)" fill="white"/>
<path d="M298.947 118.499C297.165 125.151 290.327 129.098 283.675 127.316C277.024 125.533 273.076 118.696 274.858 112.044C276.641 105.392 283.478 101.445 290.13 103.227C296.782 105.01 300.729 111.847 298.947 118.499Z" fill="black"/>
<path d="M242.59 203.406C280.633 210.5 318.133 182.5 322.348 136.996" stroke="black" stroke-width="3" stroke-linecap="round"/>
<path d="M31.9681 197.055C27.9715 192.722 32.7 186.8 39.3328 174.348L57.472 181.732C57.472 181.732 35.9648 201.387 31.9681 197.055Z" fill="#FFB5B5"/>
<path d="M78.0058 157.921L175.507 191.27L147.467 249.886L63.4665 182.498L78.0058 157.921Z" fill="#FFB5B5"/>
<path d="M40.3544 178.415L69.1433 187.705L83.6826 163.128C83.6826 163.128 90.877 119.231 76.587 124.646C69.2132 127.44 65.1946 145.924 65.1946 145.924C65.1946 145.924 60.8369 112.011 50.7405 115.991C40.644 119.972 49.212 148.64 49.212 148.64C49.212 148.64 22.3546 119.109 13.9317 129.606C5.50881 140.103 40.7694 162.216 40.7694 162.216C40.7694 162.216 10.5272 159.667 7.98842 171.434C5.44968 183.2 40.3544 178.415 40.3544 178.415Z" fill="#FFB5B5"/>
</svg>
