<svg width="80" height="80" viewBox="0 0 80 80" fill="none" xmlns="http://www.w3.org/2000/svg">
<circle cx="40" cy="40" r="40" fill="#FFE0E0"/>
<mask id="mask0_9569_6239" style="mask-type:alpha" maskUnits="userSpaceOnUse" x="0" y="0" width="80" height="80">
<circle cx="40" cy="40" r="40" fill="#FFE0E0"/>
</mask>
<g mask="url(#mask0_9569_6239)">
<g filter="url(#filter0_d_9569_6239)">
<path d="M51.2741 56.9129C42.9144 57.2572 37.7237 57.4742 30.1084 57.7885C28.2468 57.8654 26.5693 56.6467 26.1077 54.8416C24.7839 49.6644 24.5505 47.4824 24.0326 43.2368C25.0031 43.5756 25.0488 42.9205 26.0193 43.2594C26.682 45.2562 27.7571 47.3873 29.3131 50.1817C29.9764 51.373 31.3687 51.9523 32.6861 51.6006L52.7378 46.2476C52.2509 49.8015 51.764 53.3555 51.2741 56.9129Z" fill="#FFB5B5"/>
</g>
<rect width="53.8598" height="53.8598" rx="26.9299" transform="matrix(-0.752685 0.658381 0.658381 0.752685 61.8892 -4)" fill="#FFB5B5"/>
<circle cx="44.3638" cy="31.8204" r="5.33377" transform="rotate(127.553 44.3638 31.8204)" fill="white"/>
<circle cx="41.7393" cy="32.7398" r="2.66689" transform="rotate(127.553 41.7393 32.7398)" fill="black"/>
<circle cx="58.0235" cy="31.5563" r="5.33377" transform="rotate(127.553 58.0235 31.5563)" fill="white"/>
<circle cx="55.7388" cy="32.7403" r="2.66689" transform="rotate(127.553 55.7388 32.7403)" fill="black"/>
<path d="M54.0069 36.2525C53.0392 41.0006 51.5818 41.8827 47.769 41.0731" stroke="#8A8181"/>
<path d="M61.3479 23.8834C57.0154 23.658 55.13 24.629 52.8276 28.379M49.2185 28.5739C45.7213 24.7171 43.5852 23.66 39.3527 24.4314" stroke="#8A8181"/>
<path d="M40.8459 39.573L41.6285 41.4171C42.099 42.5259 41.5816 43.8063 40.4728 44.2768L35.0953 46.5588C33.9864 47.0293 32.7061 46.5119 32.2356 45.4031L31.453 43.559C30.9825 42.4501 31.4999 41.1698 32.6087 40.6993L37.9862 38.4173C39.0951 37.9467 40.3754 38.4642 40.8459 39.573Z" fill="#E28181"/>
<path d="M38.6499 41.5522L37.4226 38.66L36.9184 38.8739L38.1457 41.7661C38.1851 41.859 38.2922 41.9022 38.3851 41.8628L38.5531 41.7915C38.646 41.7521 38.6893 41.645 38.6499 41.5522Z" fill="#FFB4B4"/>
<path d="M37.0688 42.2226L35.8415 39.3304L35.3374 39.5443L36.5647 42.4365C36.6041 42.5294 36.7112 42.5727 36.804 42.5332L36.9721 42.4619C37.065 42.4225 37.1082 42.3154 37.0688 42.2226Z" fill="#FFB4B4"/>
<path d="M35.4775 42.8979L34.2502 40.0057L33.7461 40.2196L34.9734 43.1118C35.0128 43.2047 35.1199 43.248 35.2127 43.2085L35.3808 43.1372C35.4736 43.0978 35.5169 42.9907 35.4775 42.8979Z" fill="#FFB4B4"/>
<path d="M34 44.4578C34 44.4578 23.3799 51.9531 23.0119 54.3029C22.644 56.6526 22.8629 75 22.8629 75L18 73.9402C18 73.9402 19.9144 53.2431 20.0635 52.1785C20.2125 51.1139 32.6678 43 32.6678 43L33.9953 44.4578H34Z" fill="#E28181"/>
<path d="M30 62.0187V90H13V57L30 62.0187Z" fill="#FFB4B4"/>
<path d="M31.3347 58.2981L10 53L10.2285 56.5068L34 63L32.5516 58.5976L31.3347 58.2981Z" fill="#E28181"/>
<g filter="url(#filter1_d_9569_6239)">
<path d="M23.9985 49C21.7894 49 19.9985 47.433 19.9985 45.5C19.9985 43.567 21.7894 42 23.9985 42C26.2077 42 27.9985 43.567 27.9985 45.5C27.9985 47.433 26.2077 49 23.9985 49Z" fill="#FFB4B4"/>
</g>
</g>
<defs>
<filter id="filter0_d_9569_6239" x="22.0327" y="43.1587" width="32.7051" height="18.6333" filterUnits="userSpaceOnUse" color-interpolation-filters="sRGB">
<feFlood flood-opacity="0" result="BackgroundImageFix"/>
<feColorMatrix in="SourceAlpha" type="matrix" values="0 0 0 0 0 0 0 0 0 0 0 0 0 0 0 0 0 0 127 0" result="hardAlpha"/>
<feOffset dy="2"/>
<feGaussianBlur stdDeviation="1"/>
<feComposite in2="hardAlpha" operator="out"/>
<feColorMatrix type="matrix" values="0 0 0 0 0 0 0 0 0 0 0 0 0 0 0 0 0 0 0.25 0"/>
<feBlend mode="normal" in2="BackgroundImageFix" result="effect1_dropShadow_9569_6239"/>
<feBlend mode="normal" in="SourceGraphic" in2="effect1_dropShadow_9569_6239" result="shape"/>
</filter>
<filter id="filter1_d_9569_6239" x="19.9985" y="42" width="12" height="12" filterUnits="userSpaceOnUse" color-interpolation-filters="sRGB">
<feFlood flood-opacity="0" result="BackgroundImageFix"/>
<feColorMatrix in="SourceAlpha" type="matrix" values="0 0 0 0 0 0 0 0 0 0 0 0 0 0 0 0 0 0 127 0" result="hardAlpha"/>
<feOffset dx="2" dy="3"/>
<feGaussianBlur stdDeviation="1"/>
<feComposite in2="hardAlpha" operator="out"/>
<feColorMatrix type="matrix" values="0 0 0 0 0 0 0 0 0 0 0 0 0 0 0 0 0 0 0.3 0"/>
<feBlend mode="normal" in2="BackgroundImageFix" result="effect1_dropShadow_9569_6239"/>
<feBlend mode="normal" in="SourceGraphic" in2="effect1_dropShadow_9569_6239" result="shape"/>
</filter>
</defs>
</svg>
