<svg width="80" height="80" viewBox="0 0 80 80" fill="none" xmlns="http://www.w3.org/2000/svg">
<circle cx="40" cy="40" r="40" fill="#D8DCF6"/>
<circle cx="40" cy="40" r="40" fill="#D8DCF6"/>
<mask id="mask0_6709_6464" style="mask-type:alpha" maskUnits="userSpaceOnUse" x="0" y="0" width="80" height="80">
<circle cx="40" cy="40" r="40" fill="#D8DCF6"/>
</mask>
<g mask="url(#mask0_6709_6464)">
<path d="M87.2364 27.4622C92.3775 48.3823 77.3861 60.6355 56.4436 65.7821C35.501 70.9286 16.5378 67.0196 11.3968 46.0995C6.25578 25.1794 20.8835 11.4465 41.8261 6.3C62.7686 1.15344 82.0954 6.54214 87.2364 27.4622Z" fill="#9FAEFC"/>
<ellipse cx="5.70536" cy="5.64698" rx="5.70536" ry="5.64698" transform="matrix(-0.874198 0.485571 0.486782 0.873524 42.1367 18.741)" fill="white"/>
<ellipse cx="2.85268" cy="2.82349" rx="2.85268" ry="2.82349" transform="matrix(-0.874198 0.485571 0.486782 0.873524 38.6855 23.3577)" fill="black"/>
<ellipse cx="5.70536" cy="5.64698" rx="5.70536" ry="5.64698" transform="matrix(-0.874198 0.485571 0.486782 0.873524 27.5703 24.2485)" fill="white"/>
<ellipse cx="2.85268" cy="2.82349" rx="2.85268" ry="2.82349" transform="matrix(-0.874198 0.485571 0.486782 0.873524 24.2256 27.9565)" fill="black"/>
<path d="M47.0855 25.1082C54.8627 41.2136 24.48 49.9905 24.5792 42.561" stroke="#EBEBEB" stroke-linejoin="round"/>
<path d="M43.8964 15.3791C38.0958 15.8706 33.7449 18.3029 33.3727 24.287" stroke="#EBEBEB" stroke-linejoin="round"/>
<path d="M27.8228 26.6845C24.2916 23.0015 18.5555 21.5443 15.225 25.5802" stroke="#EBEBEB" stroke-linejoin="round"/>
<g filter="url(#filter0_d_6709_6464)">
<path d="M47.4058 27.3598C47.8873 28.2044 47.8111 29.3925 47.1346 30.7045C46.4633 32.0066 45.2365 33.3447 43.5988 34.381C41.9612 35.4174 40.2637 35.9299 38.8574 35.9426C37.4403 35.9554 36.409 35.4682 35.9275 34.6235C35.446 33.7789 35.5222 32.5908 36.1987 31.2787C36.87 29.9767 38.0968 28.6386 39.7345 27.6023C41.3721 26.5659 43.0696 26.0534 44.4759 26.0407C45.893 26.0279 46.9243 26.5151 47.4058 27.3598Z" fill="black" stroke="black"/>
<path d="M33.1536 35.8601C33.4208 36.9185 33.0626 38.0749 32.1647 39.103C31.268 40.1296 29.8605 40.9884 28.1473 41.4052C26.434 41.822 24.7808 41.7078 23.4994 41.211C22.2163 40.7135 21.3493 39.8551 21.082 38.7968C20.8148 37.7385 21.173 36.582 22.0709 35.554C22.9676 34.5274 24.3751 33.6686 26.0884 33.2518C27.8017 32.835 29.4548 32.9492 30.7362 33.446C32.0193 33.9435 32.8863 34.8018 33.1536 35.8601Z" fill="black" stroke="black"/>
<path d="M35.6004 33.5354L33.1536 34.8393" stroke="black"/>
</g>
<path d="M57.1345 17.8927C56.9043 17.6173 56.4944 17.5807 56.2189 17.8109C55.9435 18.0412 55.9069 18.4511 56.1371 18.7265L57.1345 17.8927ZM43.2697 43.3502C43.85 45.1747 45.7995 46.1833 47.624 45.603C49.4485 45.0227 50.4571 43.0732 49.8768 41.2487C49.2965 39.4241 47.347 38.4155 45.5225 38.9958C43.698 39.5762 42.6893 41.5257 43.2697 43.3502ZM56.1371 18.7265C58.0769 21.047 58.5094 25.0543 56.9534 29.4291C55.4076 33.7749 51.9252 38.374 46.242 41.7402L46.9045 42.8587C52.834 39.3465 56.5249 34.5131 58.1782 29.8648C59.8212 25.2455 59.4787 20.6971 57.1345 17.8927L56.1371 18.7265Z" fill="#2F396C"/>
</g>
<defs>
<filter id="filter0_d_6709_6464" x="18.4941" y="25.5303" width="29.71" height="18.6292" filterUnits="userSpaceOnUse" color-interpolation-filters="sRGB">
<feFlood flood-opacity="0" result="BackgroundImageFix"/>
<feColorMatrix in="SourceAlpha" type="matrix" values="0 0 0 0 0 0 0 0 0 0 0 0 0 0 0 0 0 0 127 0" result="hardAlpha"/>
<feOffset dx="-1" dy="1"/>
<feGaussianBlur stdDeviation="0.5"/>
<feComposite in2="hardAlpha" operator="out"/>
<feColorMatrix type="matrix" values="0 0 0 0 0 0 0 0 0 0 0 0 0 0 0 0 0 0 0.4 0"/>
<feBlend mode="normal" in2="BackgroundImageFix" result="effect1_dropShadow_6709_6464"/>
<feBlend mode="normal" in="SourceGraphic" in2="effect1_dropShadow_6709_6464" result="shape"/>
</filter>
</defs>
</svg>
