<svg width="98" height="98" viewBox="0 0 98 98" fill="none" xmlns="http://www.w3.org/2000/svg">
<circle cx="49" cy="49" r="40" fill="#FFF8DF"/>
<mask id="mask0_6709_6459" style="mask-type:alpha" maskUnits="userSpaceOnUse" x="8" y="8" width="82" height="82">
<circle cx="40" cy="40" r="40" transform="matrix(-0.970898 0.239492 0.239492 0.970898 78.2559 0.583496)" fill="#FFF3C7"/>
</mask>
<g mask="url(#mask0_6709_6459)">
<path d="M47.8785 16.7058C49.6925 14.3262 53.1666 14.0494 55.3163 16.1132L71.505 31.6553C72.0248 32.1544 72.647 32.5344 73.3287 32.7693L94.5637 40.0858C97.3974 41.0621 98.7287 44.3027 97.4054 47.0029L87.5237 67.1672C87.2038 67.8199 87.0295 68.5338 87.0128 69.2594L86.4954 91.6737C86.4263 94.6662 83.764 96.939 80.8021 96.5341L58.4899 93.4844C57.7772 93.387 57.0511 93.4448 56.3616 93.654L34.7743 100.202C31.9086 101.071 28.9369 99.2468 28.4192 96.301L24.5422 74.2369C24.4166 73.5226 24.1372 72.8449 23.7231 72.2507L10.9317 53.893C9.21873 51.4346 10.0474 48.0219 12.7006 46.6084L32.5828 36.0158C33.2211 35.6758 33.7787 35.2018 34.2174 34.6263L47.8785 16.7058Z" fill="#FFE58A"/>
<rect width="16.6737" height="9.42425" rx="4.71212" transform="matrix(-0.99246 0.122568 0.122568 0.99246 79.0693 46.2695)" fill="white"/>
<circle cx="2.89977" cy="2.89977" r="2.89977" transform="matrix(-0.99246 0.122568 0.122568 0.99246 76 47.3516)" fill="black"/>
<rect width="16.6737" height="9.42425" rx="4.71212" transform="matrix(-0.99246 0.122568 0.122568 0.99246 58.9229 48.7573)" fill="white"/>
<circle cx="2.89977" cy="2.89977" r="2.89977" transform="matrix(-0.99246 0.122568 0.122568 0.99246 56.9707 49.7017)" fill="black"/>
<path d="M67.2721 61.1634C63.3474 67.4614 58.0249 66.2487 53.7259 61.9001" stroke="#8A8181" stroke-linecap="round"/>
<path d="M79.2903 38.8542C76.4159 43.1852 70.4088 40.5545 68.5187 39.0527M55.0941 42.4456C50.6868 43.5666 46.6903 41.7415 44.666 39.153" stroke="#8A8181"/>
<g filter="url(#filter0_d_6709_6459)">
<circle cx="11.1329" cy="11.1329" r="10.6329" transform="matrix(-0.938795 0.344476 0.344476 0.938795 54.3965 39.9502)" stroke="#8A8181"/>
<path d="M63.2303 54.4978C65.2638 60.0398 71.0978 62.9371 76.222 61.0568C81.3461 59.1766 83.9216 53.1936 81.8881 47.6516C79.8545 42.1096 74.0205 39.2123 68.8964 41.0926C63.7722 42.9728 61.1967 48.9558 63.2303 54.4978Z" stroke="#8A8181"/>
<path d="M57.8356 52.4743L62.2343 52.3426" stroke="#8A8181"/>
</g>
<g filter="url(#filter1_d_6709_6459)">
<path d="M41.1633 85.4826L14.2171 42.7051C13.8561 42.132 14.0081 41.3874 14.5565 41.042L19.2507 38.085C19.7991 37.7396 20.5363 37.9241 20.8973 38.4971L47.8435 81.2747C48.2044 81.8477 48.0525 82.5923 47.5041 82.9378L42.8099 85.8947C42.2615 86.2402 41.5242 86.0557 41.1633 85.4826Z" fill="#FFE58A"/>
<path d="M20.6204 46.5216L20.0471 45.6114C20.0394 45.5992 20.2872 45.4293 20.6006 45.2319L23.283 43.5422C23.5964 43.3448 23.8567 43.1947 23.8644 43.2069L24.4377 44.117C24.4454 44.1292 24.1975 44.2992 23.8842 44.4966L21.2018 46.1862C20.8884 46.3836 20.6281 46.5338 20.6204 46.5216Z" fill="#FFF8DF"/>
<path d="M22.4232 49.3849L21.8498 48.4747C21.8422 48.4625 22.09 48.2926 22.4034 48.0952L25.0858 46.4055C25.3991 46.2081 25.6594 46.058 25.6671 46.0702L26.2404 46.9803C26.2481 46.9925 26.0003 47.1624 25.6869 47.3598L23.0045 49.0495C22.6911 49.2469 22.4308 49.3971 22.4232 49.3849Z" fill="#FFF8DF"/>
<path d="M24.2269 52.2482L23.6536 51.338C23.6459 51.3258 23.8937 51.1559 24.2071 50.9585L26.8895 49.2688C27.2029 49.0714 27.4631 48.9213 27.4708 48.9335L28.0441 49.8436C28.0518 49.8558 27.804 50.0257 27.4906 50.2231L24.8082 51.9128C24.4948 52.1102 24.2346 52.2603 24.2269 52.2482Z" fill="#FFF8DF"/>
<path d="M26.0316 55.1114L25.4582 54.2013C25.4506 54.1891 25.6984 54.0192 26.0118 53.8218L28.6942 52.1321C29.0075 51.9347 29.2678 51.7845 29.2755 51.7967L29.8488 52.7069C29.8565 52.7191 29.6087 52.889 29.2953 53.0864L26.6129 54.7761C26.2995 54.9735 26.0392 55.1236 26.0316 55.1114Z" fill="#FFF8DF"/>
<path d="M27.8343 57.9742L27.261 57.0641C27.2533 57.0519 27.5011 56.882 27.8145 56.6846L30.4969 54.9949C30.8103 54.7975 31.0706 54.6473 31.0782 54.6595L31.6516 55.5697C31.6592 55.5819 31.4114 55.7518 31.098 55.9492L28.4156 57.6389C28.1023 57.8363 27.842 57.9864 27.8343 57.9742Z" fill="#FFF8DF"/>
<path d="M29.638 60.8375L29.0647 59.9274C29.057 59.9152 29.3048 59.7452 29.6182 59.5478L32.3006 57.8582C32.614 57.6608 32.8743 57.5106 32.8819 57.5228L33.4553 58.433C33.4629 58.4452 33.2151 58.6151 32.9017 58.8125L30.2193 60.5022C29.906 60.6996 29.6457 60.8497 29.638 60.8375Z" fill="#FFF8DF"/>
<path d="M31.4407 63.7008L30.8674 62.7906C30.8597 62.7784 31.1076 62.6085 31.4209 62.4111L34.1033 60.7214C34.4167 60.524 34.677 60.3739 34.6847 60.3861L35.258 61.2962C35.2657 61.3084 35.0179 61.4784 34.7045 61.6758L32.0221 63.3654C31.7087 63.5628 31.4484 63.713 31.4407 63.7008Z" fill="#FFF8DF"/>
<path d="M33.2435 66.5621L32.6702 65.652C32.6625 65.6398 32.9103 65.4699 33.2237 65.2725L35.9061 63.5828C36.2195 63.3854 36.4797 63.2352 36.4874 63.2474L37.0607 64.1576C37.0684 64.1698 36.8206 64.3397 36.5072 64.5371L33.8248 66.2268C33.5114 66.4242 33.2512 66.5743 33.2435 66.5621Z" fill="#FFF8DF"/>
<path d="M35.0482 69.4249L34.4748 68.5148C34.4672 68.5026 34.715 68.3326 35.0284 68.1352L37.7108 66.4456C38.0241 66.2482 38.2844 66.098 38.2921 66.1102L38.8654 67.0204C38.8731 67.0326 38.6253 67.2025 38.3119 67.3999L35.6295 69.0896C35.3161 69.287 35.0558 69.4371 35.0482 69.4249Z" fill="#FFF8DF"/>
<path d="M36.8509 72.2882L36.2776 71.378C36.2699 71.3658 36.5177 71.1959 36.8311 70.9985L39.5135 69.3088C39.8269 69.1114 40.0872 68.9613 40.0948 68.9735L40.6682 69.8836C40.6758 69.8958 40.428 70.0658 40.1146 70.2632L37.4322 71.9528C37.1189 72.1502 36.8586 72.3004 36.8509 72.2882Z" fill="#FFF8DF"/>
<path d="M38.6546 75.1515L38.0813 74.2413C38.0736 74.2291 38.3214 74.0592 38.6348 73.8618L41.3172 72.1721C41.6306 71.9747 41.8909 71.8246 41.8985 71.8368L42.4719 72.7469C42.4795 72.7591 42.2317 72.929 41.9183 73.1264L39.2359 74.8161C38.9226 75.0135 38.6623 75.1637 38.6546 75.1515Z" fill="#FFF8DF"/>
<path d="M40.4583 78.0148L39.885 77.1046C39.8773 77.0924 40.1251 76.9225 40.4385 76.7251L43.1209 75.0354C43.4343 74.838 43.6946 74.6879 43.7023 74.7001L44.2756 75.6102C44.2833 75.6224 44.0354 75.7923 43.7221 75.9897L41.0397 77.6794C40.7263 77.8768 40.466 78.0269 40.4583 78.0148Z" fill="#FFF8DF"/>
<path d="M42.2611 80.878L41.6877 79.9679C41.6801 79.9557 41.9279 79.7858 42.2413 79.5884L44.9237 77.8987C45.237 77.7013 45.4973 77.5511 45.505 77.5633L46.0783 78.4735C46.086 78.4857 45.8382 78.6556 45.5248 78.853L42.8424 80.5427C42.529 80.7401 42.2687 80.8902 42.2611 80.878Z" fill="#FFF8DF"/>
</g>
<g filter="url(#filter2_d_6709_6459)">
<path d="M43.2919 81.6455C42.2688 83.9282 20.0337 86.3642 9.04395 87.2969C10.5818 90.4677 14.1094 97.2418 15.9166 98.9714C17.7238 100.701 37.5063 90.4131 47.1717 85.0529L43.488 82.6486C43.8489 81.3631 44.315 79.3627 43.2919 81.6455Z" fill="#FFE58A"/>
<path d="M48.2508 85.8826C50.6932 85.4053 52.2343 82.7729 51.693 80.0029C51.1517 77.2329 48.7329 75.3743 46.2905 75.8516C43.8481 76.3289 42.307 78.9613 42.8483 81.7313C43.3896 84.5013 45.8084 86.3599 48.2508 85.8826Z" fill="#FFE58A"/>
</g>
</g>
<defs>
<filter id="filter0_d_6709_6459" x="34.6436" y="40.019" width="48.4404" height="27.3535" filterUnits="userSpaceOnUse" color-interpolation-filters="sRGB">
<feFlood flood-opacity="0" result="BackgroundImageFix"/>
<feColorMatrix in="SourceAlpha" type="matrix" values="0 0 0 0 0 0 0 0 0 0 0 0 0 0 0 0 0 0 127 0" result="hardAlpha"/>
<feOffset dx="-1" dy="1"/>
<feGaussianBlur stdDeviation="0.5"/>
<feComposite in2="hardAlpha" operator="out"/>
<feColorMatrix type="matrix" values="0 0 0 0 0 0 0 0 0 0 0 0 0 0 0 0 0 0 0.4 0"/>
<feBlend mode="normal" in2="BackgroundImageFix" result="effect1_dropShadow_6709_6459"/>
<feBlend mode="normal" in="SourceGraphic" in2="effect1_dropShadow_6709_6459" result="shape"/>
</filter>
<filter id="filter1_d_6709_6459" x="12.0215" y="37.9111" width="36.0176" height="50.1577" filterUnits="userSpaceOnUse" color-interpolation-filters="sRGB">
<feFlood flood-opacity="0" result="BackgroundImageFix"/>
<feColorMatrix in="SourceAlpha" type="matrix" values="0 0 0 0 0 0 0 0 0 0 0 0 0 0 0 0 0 0 127 0" result="hardAlpha"/>
<feOffset dx="-1" dy="1"/>
<feGaussianBlur stdDeviation="0.5"/>
<feComposite in2="hardAlpha" operator="out"/>
<feColorMatrix type="matrix" values="0 0 0 0 0 0 0 0 0 0 0 0 0 0 0 0 0 0 0.4 0"/>
<feBlend mode="normal" in2="BackgroundImageFix" result="effect1_dropShadow_6709_6459"/>
<feBlend mode="normal" in="SourceGraphic" in2="effect1_dropShadow_6709_6459" result="shape"/>
</filter>
<filter id="filter2_d_6709_6459" x="3.54395" y="70.7769" width="52.7568" height="33.3882" filterUnits="userSpaceOnUse" color-interpolation-filters="sRGB">
<feFlood flood-opacity="0" result="BackgroundImageFix"/>
<feColorMatrix in="SourceAlpha" type="matrix" values="0 0 0 0 0 0 0 0 0 0 0 0 0 0 0 0 0 0 127 0" result="hardAlpha"/>
<feOffset dx="-0.5"/>
<feGaussianBlur stdDeviation="2.5"/>
<feComposite in2="hardAlpha" operator="out"/>
<feColorMatrix type="matrix" values="0 0 0 0 0 0 0 0 0 0 0 0 0 0 0 0 0 0 0.25 0"/>
<feBlend mode="normal" in2="BackgroundImageFix" result="effect1_dropShadow_6709_6459"/>
<feBlend mode="normal" in="SourceGraphic" in2="effect1_dropShadow_6709_6459" result="shape"/>
</filter>
</defs>
</svg>
