<svg width="80" height="80" viewBox="0 0 80 80" fill="none" xmlns="http://www.w3.org/2000/svg">
<circle cx="40" cy="40" r="40" fill="#E2F5EC"/>
<mask id="mask0_6709_6469" style="mask-type:alpha" maskUnits="userSpaceOnUse" x="0" y="0" width="80" height="80">
<circle cx="40" cy="40" r="40" fill="#15623E"/>
</mask>
<g mask="url(#mask0_6709_6469)">
<g filter="url(#filter0_d_6709_6469)">
<path d="M43.742 58.2644C38.02 60.473 22.4013 55.4192 22.4013 55.4192L21.162 59.1125C21.162 59.1125 41.4377 69.6605 44.2231 68.7426L43.742 58.2644Z" fill="#ADDCC6"/>
<path d="M20.9425 57.2149C21.1491 57.2544 21.3654 57.2422 21.5761 57.1665C22.203 56.943 22.5312 56.2521 22.3041 55.6202L17.1051 41.1211L9.46825 37.843L8.20498 28.2559C8.11764 27.5927 7.51058 27.1289 6.84729 27.2163C6.18401 27.3036 5.72023 27.9105 5.80757 28.5738L7.25187 39.5241L15.1854 42.9303L20.0295 56.4386C20.1775 56.8547 20.533 57.1412 20.9417 57.2192L20.9425 57.2149Z" fill="#90C4AB"/>
<path d="M21.5691 60.6885C18.8456 61.1447 16.268 59.3066 15.8119 56.5831C15.3558 53.8596 17.1938 51.282 19.9173 50.8259C22.6408 50.3698 25.2184 52.2078 25.6745 54.9313C26.1307 57.6548 24.2926 60.2324 21.5691 60.6885Z" fill="#ADDCC6"/>
</g>
<rect x="149.028" y="64.415" width="111.154" height="66.0574" rx="5" transform="rotate(167.197 149.028 64.415)" fill="#ADDCC6"/>
<path d="M52.2347 34.6797C52.4378 35.5784 52.4619 36.5084 52.3056 37.4165C52.1493 38.3246 51.8157 39.193 51.3238 39.9721C50.8319 40.7513 50.1914 41.4259 49.4387 41.9575C48.6861 42.4891 47.8361 42.8672 46.9374 43.0704C46.0386 43.2735 45.1086 43.2976 44.2005 43.1413C43.2924 42.985 42.424 42.6513 41.6449 42.1594C40.8657 41.6675 40.1911 41.027 39.6595 40.2744C39.1279 39.5217 38.7498 38.6718 38.5467 37.773L45.3907 36.2263L52.2347 34.6797Z" fill="white"/>
<path d="M69.2074 30.8442C69.6176 32.6594 69.2899 34.5631 68.2965 36.1367C67.303 37.7102 65.7252 38.8247 63.91 39.2349C62.0949 39.6451 60.1911 39.3174 58.6175 38.324C57.044 37.3305 55.9295 35.7527 55.5193 33.9375L62.3634 32.3909L69.2074 30.8442Z" fill="white"/>
<circle cx="44.4018" cy="40.766" r="2.24532" transform="rotate(-12.7342 44.4018 40.766)" fill="black"/>
<circle cx="61.3745" cy="36.9303" r="2.24532" transform="rotate(-12.7342 61.3745 36.9303)" fill="black"/>
<path d="M51 46.1532C57.6727 48.6833 60.0028 47.7623 62.2607 43.0002" stroke="#8A8181"/>
</g>
<defs>
<filter id="filter0_d_6709_6469" x="3.29688" y="26.2058" width="42.4258" height="45.5935" filterUnits="userSpaceOnUse" color-interpolation-filters="sRGB">
<feFlood flood-opacity="0" result="BackgroundImageFix"/>
<feColorMatrix in="SourceAlpha" type="matrix" values="0 0 0 0 0 0 0 0 0 0 0 0 0 0 0 0 0 0 127 0" result="hardAlpha"/>
<feOffset dx="-0.5" dy="1"/>
<feGaussianBlur stdDeviation="1"/>
<feComposite in2="hardAlpha" operator="out"/>
<feColorMatrix type="matrix" values="0 0 0 0 0 0 0 0 0 0 0 0 0 0 0 0 0 0 0.25 0"/>
<feBlend mode="normal" in2="BackgroundImageFix" result="effect1_dropShadow_6709_6469"/>
<feBlend mode="normal" in="SourceGraphic" in2="effect1_dropShadow_6709_6469" result="shape"/>
</filter>
</defs>
</svg>
