<svg width="80" height="80" viewBox="0 0 80 80" fill="none" xmlns="http://www.w3.org/2000/svg">
<circle cx="40" cy="40" r="40" fill="#E2F5EC"/>
<mask id="mask0_6709_6470" style="mask-type:alpha" maskUnits="userSpaceOnUse" x="0" y="0" width="80" height="80">
<circle cx="40" cy="40" r="40" fill="#E2F5EC"/>
</mask>
<g mask="url(#mask0_6709_6470)">
<rect x="60.8027" y="64.4722" width="98.1189" height="58.3107" rx="5" transform="rotate(163.258 60.8027 64.4722)" fill="#ADDCC6"/>
<path d="M26.0442 26.5021C26.2776 27.2813 26.3552 28.0988 26.2726 28.908C26.1901 29.7171 25.9489 30.5021 25.563 31.2181C25.1771 31.9341 24.6539 32.5671 24.0233 33.0808C23.3928 33.5946 22.6672 33.9792 21.888 34.2126C21.1088 34.446 20.2913 34.5236 19.4821 34.441C18.673 34.3584 17.888 34.1173 17.172 33.7314C16.456 33.3454 15.823 32.8223 15.3093 32.1917C14.7955 31.5611 14.4109 30.8356 14.1775 30.0564L20.1109 28.2792L26.0442 26.5021Z" fill="white"/>
<path d="M40.759 22.0944C41.2304 23.668 41.0573 25.3644 40.2778 26.8104C39.4984 28.2564 38.1765 29.3335 36.6028 29.8049C35.0292 30.2762 33.3328 30.1031 31.8868 29.3237C30.4408 28.5442 29.3637 27.2223 28.8924 25.6487L34.8257 23.8715L40.759 22.0944Z" fill="white"/>
<path d="M25.6531 36.6802C31.6828 38.5036 33.6789 37.5512 35.3785 33.2206" stroke="#8A8181"/>
<path d="M16.9078 30.734C21.1375 33.3029 22.7718 32.7007 24.6926 28.902" stroke="black" stroke-linecap="round"/>
<path d="M31.444 26.7042C35.6736 29.2731 37.3079 28.6709 39.2287 24.8722" stroke="black" stroke-linecap="round"/>
<g filter="url(#filter0_d_6709_6470)">
<path d="M33.9507 42.5347C34.0869 42.529 34.2204 42.5568 34.3524 42.6013C34.7277 42.7835 34.8943 43.2345 34.711 43.6063L30.5055 52.2594L25.5097 53.8002L24.0944 59.6717C23.9927 60.0839 23.5831 60.3193 23.1828 60.236C22.767 60.1346 22.5289 59.7282 22.6123 59.3314L24.231 52.6356L29.4177 51.0431L33.338 42.9721C33.4596 42.7298 33.6938 42.564 33.9662 42.5528L33.9507 42.5347Z" fill="#7AB89B"/>
<path d="M32.4536 40.5116C32.3356 41.9484 30.824 43.0016 29.0713 42.8577C27.3187 42.7138 25.9991 41.4281 26.117 39.9913C26.235 38.5545 27.7467 37.5012 29.4993 37.6452C31.252 37.7891 32.5716 39.0748 32.4536 40.5116Z" fill="#7AB89B"/>
<path d="M30.0786 43.6127C29.9606 45.0494 28.449 46.1027 26.6963 45.9588C24.9437 45.8149 23.6241 44.5291 23.742 43.0923C23.86 41.6556 25.3717 40.6023 27.1243 40.7462C28.877 40.8902 30.1966 42.1759 30.0786 43.6127Z" fill="#7AB89B"/>
<path d="M33.9604 46.7572C33.8425 48.194 32.3308 49.2472 30.5782 49.1033C28.8255 48.9594 27.5059 47.6737 27.6239 46.2369C27.7419 44.8001 29.2535 43.7469 31.0062 43.8908C32.7588 44.0347 34.0784 45.3204 33.9604 46.7572Z" fill="#7AB89B"/>
<path d="M39.2017 46.7672C39.0837 48.204 37.572 49.2572 35.8194 49.1133C34.0667 48.9694 32.7471 47.6837 32.8651 46.2469C32.9831 44.8101 34.4947 43.7569 36.2474 43.9008C38 44.0447 39.3196 45.3304 39.2017 46.7672Z" fill="#7AB89B"/>
<path d="M42.145 43.5773C42.027 45.014 40.5154 46.0673 38.7627 45.9234C37.0101 45.7795 35.6905 44.4937 35.8085 43.0569C35.9264 41.6202 37.4381 40.5669 39.1907 40.7108C40.9434 40.8548 42.263 42.1405 42.145 43.5773Z" fill="#7AB89B"/>
<path d="M38.1704 40.5265C38.0524 41.9633 36.5408 43.0165 34.7881 42.8726C33.0355 42.7287 31.7159 41.443 31.8338 40.0062C31.9518 38.5694 33.4635 37.5161 35.2161 37.6601C36.9688 37.804 38.2884 39.0897 38.1704 40.5265Z" fill="#7AB89B"/>
<path d="M32.6706 45.1037C35.1463 45.307 37.2381 44.4396 37.3427 43.1662C37.4472 41.8929 35.525 40.6959 33.0492 40.4926C30.5734 40.2893 28.4816 41.1567 28.3771 42.4301C28.2725 43.7034 30.1948 44.9004 32.6706 45.1037Z" fill="#ADDCC6"/>
</g>
<path d="M67.331 22.0542C67.2683 22.8178 66.4649 23.3775 65.5335 23.301C64.602 23.2245 63.9007 22.5412 63.9634 21.7777C64.0261 21.0141 64.8295 20.4544 65.7609 20.5308C66.6924 20.6073 67.3937 21.2906 67.331 22.0542Z" fill="#7AB89B"/>
<path d="M66.0683 23.7026C66.0056 24.4662 65.2022 25.0259 64.2708 24.9495C63.3393 24.873 62.638 24.1897 62.7007 23.4261C62.7634 22.6625 63.5668 22.1028 64.4982 22.1793C65.4297 22.2558 66.131 22.939 66.0683 23.7026Z" fill="#7AB89B"/>
<path d="M68.1317 25.3738C68.069 26.1373 67.2657 26.6971 66.3342 26.6206C65.4028 26.5441 64.7015 25.8608 64.7642 25.0973C64.8269 24.3337 65.6303 23.7739 66.5617 23.8504C67.4932 23.9269 68.1944 24.6102 68.1317 25.3738Z" fill="#7AB89B"/>
<path d="M70.9169 25.3789C70.8542 26.1425 70.0508 26.7022 69.1194 26.6257C68.1879 26.5492 67.4867 25.866 67.5494 25.1024C67.6121 24.3388 68.4154 23.7791 69.3469 23.8555C70.2783 23.932 70.9796 24.6153 70.9169 25.3789Z" fill="#7AB89B"/>
<path d="M72.4814 23.6833C72.4187 24.4469 71.6153 25.0067 70.6838 24.9302C69.7524 24.8537 69.0511 24.1704 69.1138 23.4068C69.1765 22.6432 69.9799 22.0835 70.9113 22.16C71.8428 22.2365 72.5441 22.9198 72.4814 23.6833Z" fill="#7AB89B"/>
<path d="M70.3691 22.062C70.3064 22.8256 69.503 23.3853 68.5715 23.3088C67.6401 23.2324 66.9388 22.5491 67.0015 21.7855C67.0642 21.0219 67.8676 20.4622 68.799 20.5386C69.7305 20.6151 70.4318 21.2984 70.3691 22.062Z" fill="#7AB89B"/>
<path d="M67.4458 24.4946C68.7615 24.6026 69.8732 24.1416 69.9288 23.4649C69.9843 22.7882 68.9628 22.152 67.647 22.044C66.3313 21.936 65.2196 22.397 65.164 23.0737C65.1085 23.7504 66.13 24.3865 67.4458 24.4946Z" fill="#ADDCC6"/>
<path d="M59.3168 35.2447C59.2642 35.886 58.5894 36.3561 57.8071 36.2919C57.0248 36.2277 56.4358 35.6538 56.4885 35.0124C56.5411 34.3711 57.2159 33.901 57.9982 33.9652C58.7805 34.0295 59.3695 34.6034 59.3168 35.2447Z" fill="#7AB89B"/>
<path d="M58.2563 36.6292C58.2036 37.2705 57.5289 37.7406 56.7466 37.6764C55.9643 37.6122 55.3753 37.0383 55.4279 36.397C55.4806 35.7556 56.1553 35.2855 56.9376 35.3498C57.7199 35.414 58.3089 35.9879 58.2563 36.6292Z" fill="#7AB89B"/>
<path d="M59.9897 38.0325C59.937 38.6739 59.2623 39.144 58.48 39.0797C57.6977 39.0155 57.1087 38.4416 57.1613 37.8003C57.214 37.159 57.8887 36.6888 58.671 36.7531C59.4533 36.8173 60.0423 37.3912 59.9897 38.0325Z" fill="#7AB89B"/>
<path d="M62.3295 38.0374C62.2769 38.6787 61.6021 39.1489 60.8198 39.0846C60.0375 39.0204 59.4485 38.4465 59.5012 37.8052C59.5538 37.1638 60.2285 36.6937 61.0109 36.758C61.7932 36.8222 62.3822 37.3961 62.3295 38.0374Z" fill="#7AB89B"/>
<path d="M63.643 36.6136C63.5903 37.2549 62.9156 37.725 62.1333 37.6608C61.351 37.5965 60.762 37.0227 60.8146 36.3813C60.8673 35.74 61.542 35.2699 62.3243 35.3341C63.1067 35.3984 63.6957 35.9723 63.643 36.6136Z" fill="#7AB89B"/>
<path d="M61.8686 35.2513C61.8159 35.8926 61.1412 36.3627 60.3589 36.2985C59.5766 36.2342 58.9876 35.6604 59.0402 35.019C59.0929 34.3777 59.7676 33.9076 60.5499 33.9718C61.3322 34.0361 61.9212 34.61 61.8686 35.2513Z" fill="#7AB89B"/>
<path d="M59.4139 37.2945C60.519 37.3853 61.4527 36.9981 61.4994 36.4297C61.546 35.8614 60.688 35.3271 59.583 35.2363C58.4779 35.1456 57.5442 35.5328 57.4975 36.1011C57.4509 36.6695 58.3089 37.2038 59.4139 37.2945Z" fill="#ADDCC6"/>
<path d="M55.451 12.5519C55.4069 13.0885 54.8423 13.4819 54.1876 13.4282C53.533 13.3744 53.0401 12.8942 53.0841 12.3575C53.1282 11.8209 53.6928 11.4275 54.3475 11.4812C55.0021 11.535 55.495 12.0152 55.451 12.5519Z" fill="#7AB89B"/>
<path d="M54.5633 13.7106C54.5192 14.2472 53.9546 14.6406 53.2999 14.5869C52.6453 14.5331 52.1524 14.0529 52.1964 13.5162C52.2405 12.9795 52.8051 12.5861 53.4598 12.6399C54.1144 12.6937 54.6073 13.1739 54.5633 13.7106Z" fill="#7AB89B"/>
<path d="M56.0135 14.8851C55.9694 15.4218 55.4048 15.8152 54.7501 15.7614C54.0955 15.7077 53.6026 15.2274 53.6466 14.6908C53.6907 14.1541 54.2553 13.7607 54.91 13.8145C55.5646 13.8682 56.0575 14.3485 56.0135 14.8851Z" fill="#7AB89B"/>
<path d="M57.9715 14.8893C57.9274 15.4259 57.3628 15.8193 56.7081 15.7656C56.0535 15.7118 55.5606 15.2316 55.6046 14.6949C55.6487 14.1583 56.2133 13.7649 56.868 13.8186C57.5226 13.8724 58.0155 14.3526 57.9715 14.8893Z" fill="#7AB89B"/>
<path d="M59.0701 13.6976C59.026 14.2343 58.4614 14.6277 57.8067 14.5739C57.1521 14.5202 56.6592 14.0399 56.7033 13.5033C56.7473 12.9666 57.312 12.5732 57.9666 12.627C58.6213 12.6807 59.1142 13.161 59.0701 13.6976Z" fill="#7AB89B"/>
<path d="M57.5857 12.5575C57.5417 13.0942 56.977 13.4876 56.3224 13.4338C55.6677 13.3801 55.1748 12.8998 55.2189 12.3631C55.263 11.8265 55.8276 11.4331 56.4822 11.4868C57.1369 11.5406 57.6298 12.0208 57.5857 12.5575Z" fill="#7AB89B"/>
<path d="M55.531 14.2673C56.4558 14.3432 57.2371 14.0192 57.2762 13.5436C57.3152 13.068 56.5972 12.6209 55.6725 12.545C54.7477 12.469 53.9664 12.793 53.9273 13.2686C53.8883 13.7442 54.6063 14.1914 55.531 14.2673Z" fill="#ADDCC6"/>
<g filter="url(#filter1_dd_6709_6470)">
<path d="M-3.24495 49.5594C-2.91468 48.4018 -1.59092 47.8501 -0.520985 48.435C1.39875 49.4684 3.61969 50.5174 6.14875 51.4323C9.96458 52.8132 13.4476 53.5572 16.3477 53.9564C17.1725 54.0738 17.8123 54.7115 17.9557 55.5286L18.0899 56.3253C18.2595 57.3387 17.5756 58.3082 16.5566 58.4707C12.6109 59.1374 3.10278 60.5027 -3.81898 59.6917C-4.9804 59.562 -5.74202 58.4031 -5.42888 57.2896L-3.24495 49.5594Z" fill="#ADDCC6"/>
<path d="M18.4687 60.9737C21.3352 62.0874 24.554 60.6865 25.6581 57.8447C26.7621 55.0029 25.3333 51.7964 22.4667 50.6827C19.6002 49.5691 16.3814 50.97 15.2773 53.8118C14.1733 56.6535 15.6021 59.8601 18.4687 60.9737Z" fill="#ADDCC6"/>
</g>
</g>
<defs>
<filter id="filter0_d_6709_6470" x="18.5957" y="36.6321" width="23.5566" height="26.6206" filterUnits="userSpaceOnUse" color-interpolation-filters="sRGB">
<feFlood flood-opacity="0" result="BackgroundImageFix"/>
<feColorMatrix in="SourceAlpha" type="matrix" values="0 0 0 0 0 0 0 0 0 0 0 0 0 0 0 0 0 0 127 0" result="hardAlpha"/>
<feOffset dx="-2" dy="1"/>
<feGaussianBlur stdDeviation="1"/>
<feComposite in2="hardAlpha" operator="out"/>
<feColorMatrix type="matrix" values="0 0 0 0 0 0 0 0 0 0 0 0 0 0 0 0 0 0 0.25 0"/>
<feBlend mode="normal" in2="BackgroundImageFix" result="effect1_dropShadow_6709_6470"/>
<feBlend mode="normal" in="SourceGraphic" in2="effect1_dropShadow_6709_6470" result="shape"/>
</filter>
<filter id="filter1_dd_6709_6470" x="-9.5" y="44.1992" width="39.5312" height="21.157" filterUnits="userSpaceOnUse" color-interpolation-filters="sRGB">
<feFlood flood-opacity="0" result="BackgroundImageFix"/>
<feColorMatrix in="SourceAlpha" type="matrix" values="0 0 0 0 0 0 0 0 0 0 0 0 0 0 0 0 0 0 127 0" result="hardAlpha"/>
<feOffset dx="-1" dy="-1"/>
<feGaussianBlur stdDeviation="1.5"/>
<feComposite in2="hardAlpha" operator="out"/>
<feColorMatrix type="matrix" values="0 0 0 0 0 0 0 0 0 0 0 0 0 0 0 0 0 0 0.2 0"/>
<feBlend mode="normal" in2="BackgroundImageFix" result="effect1_dropShadow_6709_6470"/>
<feColorMatrix in="SourceAlpha" type="matrix" values="0 0 0 0 0 0 0 0 0 0 0 0 0 0 0 0 0 0 127 0" result="hardAlpha"/>
<feOffset dx="1" dy="1"/>
<feGaussianBlur stdDeviation="1.5"/>
<feComposite in2="hardAlpha" operator="out"/>
<feColorMatrix type="matrix" values="0 0 0 0 0 0 0 0 0 0 0 0 0 0 0 0 0 0 0.2 0"/>
<feBlend mode="normal" in2="effect1_dropShadow_6709_6470" result="effect2_dropShadow_6709_6470"/>
<feBlend mode="normal" in="SourceGraphic" in2="effect2_dropShadow_6709_6470" result="shape"/>
</filter>
</defs>
</svg>
