<svg width="79" height="79" viewBox="0 0 79 79" fill="none" xmlns="http://www.w3.org/2000/svg">
<path d="M39.4127 78.8253C61.1797 78.8253 78.8253 61.1797 78.8253 39.4127C78.8253 17.6456 61.1797 0 39.4127 0C17.6456 0 0 17.6456 0 39.4127C0 61.1797 17.6456 78.8253 39.4127 78.8253Z" fill="#FFE0E0"/>
<mask id="mask0_6709_6465" style="mask-type:alpha" maskUnits="userSpaceOnUse" x="0" y="0" width="79" height="79">
<path d="M39.4127 78.8253C61.1797 78.8253 78.8253 61.1797 78.8253 39.4127C78.8253 17.6456 61.1797 0 39.4127 0C17.6456 0 0 17.6456 0 39.4127C0 61.1797 17.6456 78.8253 39.4127 78.8253Z" fill="#FFE0E0"/>
</mask>
<g mask="url(#mask0_6709_6465)">
<path d="M35.5 80C54.0015 80 69 65.0015 69 46.5C69 27.9985 54.0015 13 35.5 13C16.9985 13 2 27.9985 2 46.5C2 65.0015 16.9985 80 35.5 80Z" fill="#FFB5B5"/>
<ellipse cx="4.7566" cy="4.82735" rx="4.7566" ry="4.82735" transform="matrix(0.665071 0.74678 0.795105 -0.606472 41.9492 31.5542)" fill="white"/>
<ellipse cx="2.3783" cy="2.41368" rx="2.3783" ry="2.41368" transform="matrix(0.665071 0.74678 0.795105 -0.606472 47.6885 30.3965)" fill="black"/>
<ellipse cx="4.7566" cy="4.82735" rx="4.7566" ry="4.82735" transform="matrix(0.665071 0.74678 0.795105 -0.606472 26.6494 30.5559)" fill="white"/>
<ellipse cx="2.3783" cy="2.41368" rx="2.3783" ry="2.41368" transform="matrix(0.665071 0.74678 0.795105 -0.606472 31.7461 29.2263)" fill="black"/>
<path d="M35.1963 41.5184C33.4865 36.2964 47.1628 45.2064 49.5568 39.3984" stroke="#8A8181" stroke-linecap="round" stroke-linejoin="round"/>
<path d="M26.6494 26.7162C29.0725 22.2385 34.9571 23.6168 37.3802 26.716M43.2648 28.0915C47.7648 24.9918 50.534 26.7138 52.611 28.0915" stroke="#8A8181" stroke-linecap="round"/>
</g>
</svg>
