<svg width="36" height="34" viewBox="0 0 36 34" fill="none" xmlns="http://www.w3.org/2000/svg">
<path d="M13.4988 0C6.0436 0 0 6.26674 0 13.9972C0 16.1126 0.453433 18.1217 1.26593 19.9225C0.722167 22.2089 0.251149 24.6509 0.0391284 25.7871C-0.20079 27.073 0.877133 28.1995 2.1147 27.971C3.23656 27.7639 5.67516 27.2977 7.93986 26.7557C9.63655 27.5517 11.5194 27.9944 13.4988 27.9944C20.9539 27.9944 26.9976 21.7275 26.9976 13.9972C26.9976 6.26674 20.9539 0 13.4988 0ZM9.1622 8.20503C9.63675 7.29742 10.2635 6.61247 11.0582 6.17225C11.8394 5.7395 12.6801 5.60029 13.4985 5.60023C14.446 5.60018 15.5465 5.92291 16.4352 6.67813C17.3657 7.46874 17.9982 8.68172 17.9982 10.2646C17.9982 12.0835 16.7587 13.0709 16.0598 13.6277C16.0056 13.6708 15.9543 13.7116 15.9075 13.7499C15.1433 14.3727 14.8485 14.7054 14.8485 15.3969C14.8485 16.1699 14.2441 16.7966 13.4986 16.7966C12.7531 16.7966 12.1487 16.1699 12.1487 15.3969C12.1487 13.2805 13.4289 12.2092 14.2394 11.5487C15.1633 10.7959 15.2984 10.6282 15.2984 10.2646C15.2984 9.5236 15.031 9.10423 14.7241 8.84347C14.3756 8.54733 13.9011 8.39965 13.4987 8.39967C12.9673 8.39971 12.602 8.49091 12.3303 8.64143C12.0721 8.78444 11.799 9.03557 11.5356 9.5393C11.1803 10.2189 10.3609 10.4711 9.70552 10.1027C9.05012 9.73423 8.80688 8.88462 9.1622 8.20503ZM13.4989 18.6629C14.493 18.6629 15.2988 19.4984 15.2988 20.5294C15.2988 21.5601 14.493 22.3957 13.4989 22.3957C12.5048 22.3957 11.6989 21.5601 11.6989 20.5294C11.6989 19.4984 12.5048 18.6629 13.4989 18.6629ZM13.3195 29.859C15.7281 32.176 18.9536 33.5927 22.4982 33.5927C24.4771 33.5927 26.3595 33.1502 28.0559 32.3546C29.9345 32.8105 31.9909 33.2655 33.2995 33.5492C34.9059 33.8972 36.3087 32.4023 35.9408 30.7509C35.6483 29.4381 35.187 27.4003 34.7317 25.5191C35.5437 23.7187 35.9969 21.7102 35.9969 19.5955C35.9969 13.4686 32.2005 8.26108 26.9139 6.36435C27.5444 7.55323 28.0319 8.835 28.353 10.1848C31.3282 12.179 33.2972 15.6488 33.2972 19.5955C33.2972 21.4457 32.8654 23.1873 32.1019 24.7218L31.867 25.194L31.9932 25.7089C32.4034 27.38 32.833 29.2548 33.1478 30.6555C31.7547 30.35 29.8764 29.9273 28.2179 29.5178L27.7418 29.4004L27.3035 29.6266C25.8579 30.3728 24.2273 30.7932 22.4982 30.7932C20.591 30.7932 18.7995 30.2807 17.2446 29.3812C16.0459 29.694 14.7912 29.8601 13.499 29.8601C13.4391 29.8601 13.3793 29.8597 13.3195 29.859Z" fill="#888888"/>
</svg>
