<svg width="26" height="26" viewBox="0 0 26 26" fill="none" xmlns="http://www.w3.org/2000/svg">
<path d="M15.6577 21.9986H15.5978C15.378 21.9854 15.1688 21.8999 15.0026 21.7554C14.8365 21.611 14.7228 21.4156 14.6791 21.1998L13.1415 13.6412C13.1023 13.4493 13.0076 13.2732 12.8691 13.1347C12.7307 12.9962 12.5545 12.9015 12.3626 12.8624L4.80399 11.3247C4.58779 11.2817 4.39187 11.1685 4.24678 11.0025C4.1017 10.8366 4.0156 10.6273 4.00193 10.4073C3.98825 10.1873 4.04775 9.96893 4.17116 9.78629C4.29457 9.60365 4.47495 9.46697 4.68417 9.39758L20.6602 4.07558C20.8395 4.00154 21.0365 3.98134 21.2271 4.01746C21.4177 4.05357 21.5937 4.14444 21.7335 4.27896C21.8733 4.41347 21.9709 4.5858 22.0144 4.77489C22.0578 4.96398 22.0452 5.16162 21.9782 5.34368L16.6562 21.3197C16.5867 21.5263 16.4515 21.7046 16.2712 21.8272C16.0909 21.9498 15.8754 22.01 15.6577 21.9986Z" fill="#C1C1C1"/>
</svg>
