<svg width="18" height="14" viewBox="0 0 18 14" fill="none" xmlns="http://www.w3.org/2000/svg">
<path d="M1.49967 0.333008C1.07234 0.333008 0.720093 0.654708 0.671925 1.06916L0.666342 1.16634V6.58301C0.666342 8.14017 1.88659 9.41226 3.42301 9.49534L3.58301 9.49967H14.4872L11.7437 12.2438C11.4433 12.5442 11.4202 13.0168 11.6744 13.3438L11.7437 13.4223C12.0442 13.7227 12.5168 13.7458 12.8438 13.4916L12.9223 13.4223L17.0889 9.25559C17.1184 9.22609 17.1452 9.19492 17.1694 9.16242L17.2291 9.06976L17.2736 8.97576L17.3031 8.88801L17.3238 8.79009L17.3297 8.74117L17.333 8.66634L17.3307 8.60367L17.3161 8.49909L17.2916 8.40626L17.2549 8.31367L17.2113 8.23242L17.1583 8.15559L17.0889 8.07709L12.9223 3.91042C12.5968 3.58498 12.0692 3.58498 11.7437 3.91042C11.4433 4.21082 11.4202 4.68352 11.6744 5.01042L11.7437 5.08893L14.4872 7.83301H3.58301C2.93326 7.83301 2.39934 7.33726 2.33876 6.70342L2.33301 6.58301V1.16634C2.33301 0.706108 1.95992 0.333008 1.49967 0.333008Z" fill="#C1C1C1"/>
</svg>
