<svg width="29" height="29" viewBox="0 0 29 29" fill="none" xmlns="http://www.w3.org/2000/svg">
<path d="M0.877723 1.15855L1.00783 1.00783C1.4849 0.530767 2.23142 0.487408 2.75747 0.877723L2.90818 1.00783L14.4997 12.5987L26.0912 1.00783C26.616 0.483072 27.4667 0.483072 27.9915 1.00783C28.5162 1.53259 28.5162 2.38342 27.9915 2.90818L16.4006 14.4997L27.9915 26.0912C28.4686 26.5682 28.5119 27.3147 28.1215 27.8408L27.9915 27.9915C27.5145 28.4686 26.7679 28.5119 26.2419 28.1215L26.0912 27.9915L14.4997 16.4006L2.90818 27.9915C2.38342 28.5162 1.53259 28.5162 1.00783 27.9915C0.483072 27.4667 0.483072 26.616 1.00783 26.0912L12.5987 14.4997L1.00783 2.90818C0.530767 2.43112 0.487408 1.6846 0.877723 1.15855Z" fill="#808080"/>
</svg>
