<svg width="33" height="32" viewBox="0 0 33 32" fill="none" xmlns="http://www.w3.org/2000/svg">
<path d="M31.7996 6.67972L26.3196 1.19972C25.6044 0.527907 24.6672 0.142433 23.6863 0.11662C22.7054 0.0908063 21.7492 0.426455 20.9996 1.05972L2.99962 19.0597C2.35315 19.7116 1.95063 20.5661 1.85962 21.4797L0.999617 29.8197C0.972675 30.1127 1.01069 30.4079 1.11094 30.6845C1.21119 30.9611 1.37122 31.2121 1.57962 31.4197C1.7665 31.6051 1.98813 31.7517 2.2318 31.8513C2.47548 31.9508 2.7364 32.0012 2.99962 31.9997H3.17962L11.5196 31.2397C12.4332 31.1487 13.2877 30.7462 13.9396 30.0997L31.9396 12.0997C32.6383 11.3617 33.0158 10.3767 32.9896 9.36079C32.9633 8.34484 32.5354 7.38073 31.7996 6.67972ZM24.9996 13.3597L19.6396 7.99972L23.5396 3.99972L28.9996 9.45971L24.9996 13.3597Z" fill="#888888"/>
</svg>
