<svg width="36" height="33" viewBox="0 0 36 33" fill="none" xmlns="http://www.w3.org/2000/svg">
<path d="M21.4645 0C22.9005 0 24.2293 0.753718 24.9565 1.98098L26.4227 4.45474H30.15C33.3808 4.45474 36 7.0507 36 10.253V27.2018C36 30.404 33.3808 33 30.15 33H5.85C2.61913 33 0 30.404 0 27.2018V10.253C0 7.0507 2.61913 4.45474 5.85 4.45474H9.59476L11.169 1.91369C11.9056 0.724602 13.2125 0 14.6203 0H21.4645ZM18 9.80697C13.5265 9.80697 9.9 13.4014 9.9 17.8354C9.9 22.2692 13.5265 25.8637 18 25.8637C22.4735 25.8637 26.1 22.2692 26.1 17.8354C26.1 13.4014 22.4735 9.80697 18 9.80697ZM18 12.4831C20.9824 12.4831 23.4 14.8793 23.4 17.8354C23.4 20.7912 20.9824 23.1876 18 23.1876C15.0176 23.1876 12.6 20.7912 12.6 17.8354C12.6 14.8793 15.0176 12.4831 18 12.4831Z" fill="#808080"/>
</svg>
