<svg width="26" height="26" viewBox="0 0 26 26" fill="none" xmlns="http://www.w3.org/2000/svg">
<path d="M3.98056 19.3754C4.74297 19.3754 5.36103 19.9853 5.36103 20.7377C5.36103 21.4901 4.74297 22.1 3.98056 22.1C3.21816 22.1 2.6001 21.4901 2.6001 20.7377C2.6001 19.9853 3.21816 19.3754 3.98056 19.3754ZM7.84885 19.9206H23.8713C24.329 19.9206 24.7001 20.2868 24.7001 20.7385C24.7001 21.1525 24.3883 21.4947 23.9838 21.5489L23.8713 21.5563H7.84885C7.39115 21.5563 7.0201 21.1901 7.0201 20.7385C7.0201 20.3244 7.33187 19.9822 7.73639 19.9281L7.84885 19.9206ZM3.98056 12.2877C4.74297 12.2877 5.36103 12.8976 5.36103 13.65C5.36103 14.4023 4.74297 15.0122 3.98056 15.0122C3.21816 15.0122 2.6001 14.4023 2.6001 13.65C2.6001 12.8976 3.21816 12.2877 3.98056 12.2877ZM7.84885 12.8329H23.8713C24.329 12.8329 24.7001 13.1991 24.7001 13.6507C24.7001 14.0647 24.3883 14.4069 23.9838 14.4611L23.8713 14.4685H7.84885C7.39115 14.4685 7.0201 14.1024 7.0201 13.6507C7.0201 13.2367 7.33187 12.8945 7.73639 12.8403L7.84885 12.8329ZM3.98056 5.19995C4.74297 5.19995 5.36103 5.80986 5.36103 6.5622C5.36103 7.31455 4.74297 7.92446 3.98056 7.92446C3.21816 7.92446 2.6001 7.31455 2.6001 6.5622C2.6001 5.80986 3.21816 5.19995 3.98056 5.19995ZM7.84885 5.74516H23.8713C24.329 5.74516 24.7001 6.11131 24.7001 6.56298C24.7001 6.97701 24.3883 7.31917 23.9838 7.37332L23.8713 7.38079H7.84885C7.39115 7.38079 7.0201 7.01464 7.0201 6.56298C7.0201 6.14894 7.33187 5.80678 7.73639 5.75263L7.84885 5.74516Z" fill="white"/>
</svg>
