<svg width="36" height="36" viewBox="0 0 36 36" fill="none" xmlns="http://www.w3.org/2000/svg">
<path d="M18 0C27.941 0 36 8.05887 36 18C36 27.941 27.941 36 18 36C8.05887 36 0 27.941 0 18C0 8.05887 8.05887 0 18 0ZM23.7955 12.5454L15.75 20.5907L12.2046 17.0455C11.6774 16.5182 10.8226 16.5182 10.2954 17.0455C9.7682 17.5727 9.7682 18.4273 10.2954 18.9545L14.7955 23.4545C15.3227 23.9818 16.1773 23.9818 16.7045 23.4545L25.7045 14.4545C26.2318 13.9274 26.2318 13.0726 25.7045 12.5454C25.1773 12.0182 24.3227 12.0182 23.7955 12.5454Z" fill="#888888"/>
</svg>
