<svg width="26" height="26" viewBox="0 0 26 26" fill="none" xmlns="http://www.w3.org/2000/svg">
<circle cx="13" cy="13" r="11" fill="#EBEBEB"/>
<path fill-rule="evenodd" clip-rule="evenodd" d="M7 13C7 12.4477 7.44772 12 8 12H18C18.5523 12 19 12.4477 19 13C19 13.5523 18.5523 14 18 14H8C7.44772 14 7 13.5523 7 13Z" fill="#D2D2D2"/>
<path fill-rule="evenodd" clip-rule="evenodd" d="M13 7C13.5523 7 14 7.44772 14 8L14 18C14 18.5523 13.5523 19 13 19C12.4477 19 12 18.5523 12 18L12 8C12 7.44772 12.4477 7 13 7Z" fill="#D2D2D2"/>
</svg>
