<svg width="32" height="36" viewBox="0 0 32 36" fill="none" xmlns="http://www.w3.org/2000/svg">
<path d="M12.5 21.498H19.5V33.748H12.5V21.498Z" fill="#888888"/>
<path d="M30.7352 14.8135L17.2427 1.02351C17.08 0.859482 16.8865 0.729292 16.6732 0.640446C16.46 0.551601 16.2312 0.505859 16.0002 0.505859C15.7692 0.505859 15.5404 0.551601 15.3272 0.640446C15.1139 0.729292 14.9204 0.859482 14.7577 1.02351L1.2652 14.831C0.938717 15.1601 0.680867 15.5508 0.506626 15.9804C0.332384 16.41 0.245223 16.8699 0.250202 17.3335V31.9985C0.248846 32.8944 0.591055 33.7566 1.20636 34.4077C1.82166 35.0588 2.66321 35.4492 3.5577 35.4985H9.0002V19.7485C9.0002 19.2844 9.18458 18.8393 9.51277 18.5111C9.84095 18.1829 10.2861 17.9985 10.7502 17.9985H21.2502C21.7143 17.9985 22.1594 18.1829 22.4876 18.5111C22.8158 18.8393 23.0002 19.2844 23.0002 19.7485V35.4985H28.4427C29.3372 35.4492 30.1787 35.0588 30.794 34.4077C31.4093 33.7566 31.7516 32.8944 31.7502 31.9985V17.3335C31.7516 16.3936 31.3876 15.49 30.7352 14.8135Z" fill="#888888"/>
</svg>
