<svg width="36" height="36" viewBox="0 0 36 36" fill="none" xmlns="http://www.w3.org/2000/svg">
<path d="M18.0001 0C27.9412 0 36 8.05889 36 18C36 27.9412 27.9412 36 18.0001 36C8.05888 36 0 27.9412 0 18C0 8.05889 8.05888 0 18.0001 0ZM17.9932 14.8487C17.0701 14.8494 16.3099 15.5447 16.2066 16.4399L16.1946 16.6497L16.201 26.5511L16.2133 26.7609C16.3179 27.6559 17.0791 28.3503 18.002 28.3495C18.9249 28.349 19.6851 27.6538 19.7886 26.7586L19.8005 26.5487L19.794 16.6474L19.7818 16.4375C19.6772 15.5425 18.9161 14.8482 17.9932 14.8487ZM18.0008 8.10062C16.7568 8.10062 15.7484 9.10904 15.7484 10.353C15.7484 11.597 16.7568 12.6054 18.0008 12.6054C19.2447 12.6054 20.2533 11.597 20.2533 10.353C20.2533 9.10904 19.2447 8.10062 18.0008 8.10062Z" fill="#888888"/>
</svg>
