<svg width="30" height="30" viewBox="0 0 30 30" fill="none" xmlns="http://www.w3.org/2000/svg">
<circle cx="15" cy="15" r="15" fill="white"/>
<path d="M15 0C23.2842 0 30 6.71572 30 15C30 23.2842 23.2842 30 15 30C6.71572 30 0 23.2842 0 15C0 6.71572 6.71572 0 15 0ZM15 2.25C7.95837 2.25 2.25 7.95837 2.25 15C2.25 22.0416 7.95837 27.75 15 27.75C22.0416 27.75 27.75 22.0416 27.75 15C27.75 7.95837 22.0416 2.25 15 2.25ZM13.125 17.1589L19.8295 10.4545C20.2689 10.0152 20.9811 10.0152 21.4205 10.4545C21.8199 10.8539 21.8562 11.4789 21.5293 11.9193L21.4205 12.0455L13.9205 19.5455C13.5212 19.9449 12.8961 19.9812 12.4557 19.6543L12.3295 19.5455L8.5795 15.7955C8.14017 15.3561 8.14017 14.6439 8.5795 14.2045C8.97891 13.8051 9.6039 13.7688 10.0443 14.0957L10.1705 14.2045L13.125 17.1589Z" fill="#DADADA"/>
</svg>
