<svg width="26" height="26" viewBox="0 0 26 26" fill="none" xmlns="http://www.w3.org/2000/svg">
<path d="M14.5833 5C15.5096 5 16.2677 5.74013 16.3293 6.67676L16.3333 6.8C16.3333 6.73225 16.3297 6.66536 16.3226 6.59955L17.6944 6.6C18.6609 6.6 19.4444 7.40589 19.4444 8.4V19.2C19.4444 20.1941 18.6609 21 17.6944 21H8.75C7.7835 21 7 20.1941 7 19.2V8.4C7 7.40589 7.7835 6.6 8.75 6.6L10.1218 6.59955C10.1168 6.64619 10.1135 6.69337 10.112 6.74101L10.1111 6.8C10.1111 5.80589 10.8946 5 11.8611 5H14.5833ZM14.5833 8.6H11.8611C11.2435 8.6 10.7006 8.27094 10.3892 7.77397L10.4059 7.80016L8.75 7.8C8.42784 7.8 8.16667 8.06863 8.16667 8.4V19.2C8.16667 19.5314 8.42784 19.8 8.75 19.8H17.6944C18.0166 19.8 18.2778 19.5314 18.2778 19.2V8.4C18.2778 8.06863 18.0166 7.8 17.6944 7.8L16.0386 7.80016L16.0553 7.77397C15.7438 8.27094 15.201 8.6 14.5833 8.6ZM14.5833 6.2H11.8611C11.5389 6.2 11.2778 6.46863 11.2778 6.8C11.2778 7.13137 11.5389 7.4 11.8611 7.4H14.5833C14.9055 7.4 15.1667 7.13137 15.1667 6.8C15.1667 6.46863 14.9055 6.2 14.5833 6.2ZM10.1111 15H13.2222C13.5444 15 13.8056 14.7314 13.8056 14.4C13.8056 14.0686 13.5444 13.8 13.2222 13.8H10.1111C9.78895 13.8 9.52778 14.0686 9.52778 14.4C9.52778 14.7314 9.78895 15 10.1111 15ZM10.1111 11.8H16.3333C16.6555 11.8 16.9167 11.5314 16.9167 11.2C16.9167 10.8686 16.6555 10.6 16.3333 10.6H10.1111C9.78895 10.6 9.52778 10.8686 9.52778 11.2C9.52778 11.5314 9.78895 11.8 10.1111 11.8ZM10.1111 18.2H14.7778C15.0999 18.2 15.3611 17.9314 15.3611 17.6C15.3611 17.2686 15.0999 17 14.7778 17H10.1111C9.78895 17 9.52778 17.2686 9.52778 17.6C9.52778 17.9314 9.78895 18.2 10.1111 18.2Z" fill="#888888"/>
</svg>
