<svg width="36" height="36" viewBox="0 0 36 36" fill="none" xmlns="http://www.w3.org/2000/svg">
<path d="M18 36C8.05887 36 0 27.941 0 18C0 8.05887 8.05887 0 18 0C27.941 0 36 8.05887 36 18C36 27.941 27.941 36 18 36ZM27 20.7C27 19.2089 25.7911 18 24.3 18H11.7C10.2088 18 9 19.2089 9 20.7V21.6C9 25.1485 12.3471 28.8 18 28.8C23.6529 28.8 27 25.1485 27 21.6V20.7ZM22.95 11.25C22.95 8.5162 20.7338 6.3 18 6.3C15.2662 6.3 13.05 8.5162 13.05 11.25C13.05 13.9838 15.2662 16.2 18 16.2C20.7338 16.2 22.95 13.9838 22.95 11.25Z" fill="#888888"/>
</svg>
