<svg width="36" height="36" viewBox="0 0 36 36" fill="none" xmlns="http://www.w3.org/2000/svg">
<path d="M30.6206 5.62791C27.7493 2.73778 23.9595 0.940028 19.9047 0.544578C15.8499 0.149129 11.7842 1.18077 8.40856 3.46164C5.03287 5.7425 2.55874 9.12967 1.41272 13.0392C0.266694 16.9487 0.520588 21.1355 2.13063 24.8779C2.29844 25.2257 2.3535 25.6173 2.28813 25.9979L0.748132 33.4004C0.6888 33.6842 0.700916 33.9783 0.78339 34.2563C0.865864 34.5343 1.01611 34.7874 1.22063 34.9929C1.38829 35.1594 1.58791 35.2901 1.80747 35.3773C2.02702 35.4646 2.26196 35.5064 2.49813 35.5004H2.84813L10.3381 33.9954C10.7188 33.9496 11.1048 34.0039 11.4581 34.1529C15.2005 35.763 19.3874 36.0168 23.2969 34.8708C27.2064 33.7248 30.5935 31.2507 32.8744 27.875C35.1553 24.4993 36.1869 20.4336 35.7915 16.3788C35.396 12.324 33.5983 8.53428 30.7081 5.66291L30.6206 5.62791ZM11.2481 19.7504C10.902 19.7504 10.5637 19.6478 10.2759 19.4555C9.9881 19.2632 9.7638 18.9899 9.63134 18.6701C9.49889 18.3503 9.46423 17.9985 9.53176 17.659C9.59928 17.3195 9.76595 17.0077 10.0107 16.763C10.2554 16.5182 10.5673 16.3516 10.9067 16.284C11.2462 16.2165 11.5981 16.2512 11.9178 16.3836C12.2376 16.5161 12.5109 16.7404 12.7032 17.0282C12.8955 17.3159 12.9981 17.6543 12.9981 18.0004C12.9981 18.4645 12.8138 18.9097 12.4856 19.2378C12.1574 19.566 11.7123 19.7504 11.2481 19.7504ZM18.2481 19.7504C17.902 19.7504 17.5637 19.6478 17.2759 19.4555C16.9881 19.2632 16.7638 18.9899 16.6313 18.6701C16.4989 18.3503 16.4642 17.9985 16.5318 17.659C16.5993 17.3195 16.766 17.0077 17.0107 16.763C17.2554 16.5182 17.5673 16.3516 17.9067 16.284C18.2462 16.2165 18.5981 16.2512 18.9178 16.3836C19.2376 16.5161 19.5109 16.7404 19.7032 17.0282C19.8955 17.3159 19.9981 17.6543 19.9981 18.0004C19.9981 18.4645 19.8138 18.9097 19.4856 19.2378C19.1574 19.566 18.7123 19.7504 18.2481 19.7504ZM25.2481 19.7504C24.902 19.7504 24.5637 19.6478 24.2759 19.4555C23.9881 19.2632 23.7638 18.9899 23.6313 18.6701C23.4989 18.3503 23.4642 17.9985 23.5318 17.659C23.5993 17.3195 23.766 17.0077 24.0107 16.763C24.2554 16.5182 24.5673 16.3516 24.9067 16.284C25.2462 16.2165 25.5981 16.2512 25.9178 16.3836C26.2376 16.5161 26.5109 16.7404 26.7032 17.0282C26.8955 17.3159 26.9981 17.6543 26.9981 18.0004C26.9981 18.4645 26.8138 18.9097 26.4856 19.2378C26.1574 19.566 25.7123 19.7504 25.2481 19.7504Z" fill="#888888"/>
</svg>
