<svg width="6" height="24" viewBox="0 0 6 24" fill="none" xmlns="http://www.w3.org/2000/svg">
<path d="M3 14.501C4.38071 14.501 5.5 13.3817 5.5 12.001C5.5 10.6203 4.38071 9.50098 3 9.50098C1.61929 9.50098 0.5 10.6203 0.5 12.001C0.5 13.3817 1.61929 14.501 3 14.501Z" fill="#717171"/>
<path d="M3 5.75C4.38071 5.75 5.5 4.63071 5.5 3.25C5.5 1.86929 4.38071 0.75 3 0.75C1.61929 0.75 0.5 1.86929 0.5 3.25C0.5 4.63071 1.61929 5.75 3 5.75Z" fill="#717171"/>
<path d="M3 23.249C4.38071 23.249 5.5 22.1297 5.5 20.749C5.5 19.3683 4.38071 18.249 3 18.249C1.61929 18.249 0.5 19.3683 0.5 20.749C0.5 22.1297 1.61929 23.249 3 23.249Z" fill="#717171"/>
</svg>
