<svg width="35" height="35" viewBox="0 0 35 35" fill="none" xmlns="http://www.w3.org/2000/svg">
<path d="M22.6312 34.2503H22.5187C22.1061 34.2255 21.7132 34.0649 21.4012 33.7936C21.0892 33.5223 20.8757 33.1555 20.7937 32.7503L17.9062 18.5566C17.8327 18.1962 17.6549 17.8655 17.3949 17.6054C17.1348 17.3454 16.8041 17.1676 16.4437 17.0941L2.24998 14.2066C1.84399 14.1259 1.47609 13.9132 1.20365 13.6016C0.931205 13.29 0.769536 12.897 0.74385 12.4839C0.718163 12.0707 0.829903 11.6607 1.06164 11.3177C1.29339 10.9748 1.6321 10.7181 2.02498 10.5878L32.025 0.594076C32.3617 0.455032 32.7317 0.417103 33.0896 0.484926C33.4476 0.55275 33.778 0.723387 34.0406 0.975981C34.3031 1.22857 34.4864 1.55218 34.568 1.90725C34.6496 2.26232 34.6259 2.63347 34.5 2.97533L24.5062 32.9753C24.3758 33.3634 24.1219 33.6981 23.7833 33.9284C23.4447 34.1586 23.0401 34.2717 22.6312 34.2503Z" fill="#808080"/>
</svg>
