<svg width="26" height="26" viewBox="0 0 26 26" fill="none" xmlns="http://www.w3.org/2000/svg">
<path d="M11.3125 4C15.351 4 18.625 7.27391 18.625 11.3125C18.625 12.9798 18.0669 14.5169 17.1274 15.7471L21.7519 20.3731C22.1327 20.7538 22.1327 21.3712 21.7519 21.7519C21.4004 22.1034 20.8474 22.1304 20.4649 21.833L20.3731 21.7519L15.7471 17.1274C14.5169 18.0669 12.9798 18.625 11.3125 18.625C7.27391 18.625 4 15.351 4 11.3125C4 7.27391 7.27391 4 11.3125 4ZM11.3125 5.95C8.35087 5.95 5.95 8.35087 5.95 11.3125C5.95 14.2742 8.35087 16.675 11.3125 16.675C14.2742 16.675 16.675 14.2742 16.675 11.3125C16.675 8.35087 14.2742 5.95 11.3125 5.95Z" fill="white"/>
</svg>
