<svg width="26" height="26" viewBox="0 0 26 26" fill="none" xmlns="http://www.w3.org/2000/svg">
<path d="M20.214 5.78602C19.1657 4.73795 17.4664 4.738 16.4183 5.78613L7.45577 14.7491C7.15103 15.0539 6.93683 15.4372 6.837 15.8564L6.01531 19.3073C5.97007 19.4973 6.02664 19.6972 6.16476 19.8352C6.30289 19.9734 6.50278 20.0299 6.6928 19.9847L10.1437 19.1631C10.5631 19.0632 10.9466 18.849 11.2514 18.5441L20.214 9.58114C21.262 8.53309 21.262 6.834 20.214 5.78602ZM17.2139 6.58152C17.8226 5.97275 18.8096 5.97272 19.4184 6.58146C20.0271 7.19015 20.0272 8.17702 19.4185 8.78574L18.75 9.45428L16.5455 7.24993L17.2139 6.58152ZM15.75 8.04542L17.9546 10.2498L10.4559 17.7487C10.2983 17.9064 10.1 18.0171 9.88317 18.0688L7.32143 18.6787L7.93141 16.117C7.98302 15.9002 8.09376 15.702 8.25132 15.5445L15.75 8.04542Z" fill="#888888"/>
</svg>
