<svg width="36" height="34" viewBox="0 0 36 34" fill="none" xmlns="http://www.w3.org/2000/svg">
<path d="M10.2857 13.6C14.0727 13.6 17.1429 10.5555 17.1429 6.8C17.1429 3.04446 14.0727 0 10.2857 0C6.49862 0 3.42857 3.04446 3.42857 6.8C3.42857 10.5555 6.49862 13.6 10.2857 13.6ZM25.7143 13.6C28.5547 13.6 30.8571 11.3166 30.8571 8.5C30.8571 5.68336 28.5547 3.4 25.7143 3.4C22.8739 3.4 20.5714 5.68336 20.5714 8.5C20.5714 11.3166 22.8739 13.6 25.7143 13.6ZM3.85714 17C1.7269 17 0 18.7126 0 20.825V21.25C0 21.25 0 28.9 10.2857 28.9C12.6683 28.9 14.4991 28.4895 15.9057 27.8588C15.5954 26.8432 15.4286 25.7659 15.4286 24.65C15.4286 21.8333 16.4913 19.2629 18.2409 17.3113C17.7727 17.111 17.2565 17 16.7143 17H3.85714ZM36 24.65C36 19.4861 31.7787 15.3 26.5714 15.3C21.3641 15.3 17.1429 19.4861 17.1429 24.65C17.1429 29.8139 21.3641 34 26.5714 34C31.7787 34 36 29.8139 36 24.65ZM27.4296 25.5L27.4305 29.756C27.4305 30.2255 27.0468 30.606 26.5733 30.606C26.1 30.606 25.7162 30.2255 25.7162 29.756L25.7153 25.5H21.421C20.9481 25.5 20.5647 25.1195 20.5647 24.65C20.5647 24.1806 20.9481 23.8 21.421 23.8H25.7151L25.7143 19.5488C25.7143 19.0793 26.0981 18.6988 26.5714 18.6988C27.0447 18.6988 27.4286 19.0793 27.4286 19.5488L27.4294 23.8H31.7085C32.1814 23.8 32.5647 24.1806 32.5647 24.65C32.5647 25.1195 32.1814 25.5 31.7085 25.5H27.4296Z" fill="#888888"/>
</svg>
