<svg width="26" height="26" viewBox="0 0 26 26" fill="none" xmlns="http://www.w3.org/2000/svg">
<path d="M15.3869 10.8577C15.7819 9.63457 15.9814 8.56385 15.9814 7.64064C15.9814 5.58463 15.1764 4 13.8385 4C13.1127 4 12.888 4.43221 12.607 5.49728C12.6217 5.44163 12.4673 6.04067 12.4223 6.20117C12.3357 6.50866 12.185 7.03216 11.9705 7.77061C11.9647 7.79039 11.9563 7.80903 11.9453 7.82624L9.48808 11.6711C8.90689 12.5805 8.04935 13.2795 7.04145 13.6654L5.96382 14.078C5.28379 14.3383 4.88897 15.0495 5.02758 15.7643L5.61572 18.7975C5.75898 19.5364 6.31896 20.1244 7.04993 20.3035L14.1209 22.0366C16.2905 22.5683 18.4835 21.2527 19.0354 19.0881L20.3844 13.7973C20.706 12.5358 19.9441 11.2524 18.6827 10.9308C18.4924 10.8823 18.2968 10.8577 18.1003 10.8577H15.3869Z" fill="#C1C1C1"/>
</svg>
