<svg width="32" height="32" viewBox="0 0 32 32" fill="none" xmlns="http://www.w3.org/2000/svg">
<path d="M19.1121 3.7779C18.8993 2.20913 17.5546 1 15.9274 1H10.9278C9.30069 1 7.95597 2.20913 7.74315 3.7779L7.72238 3.97118L7.7335 3.8561L5.21402 3.8569C3.43896 3.8569 2 5.29587 2 7.07092V26.355C2 28.13 3.43896 29.569 5.21402 29.569H12.0012C11.9909 29.2941 12.019 29.0102 12.0909 28.7227L12.7447 26.1076C12.8814 25.5606 13.1045 25.0417 13.4033 24.5694H7.71381C7.12213 24.5694 6.64247 24.0898 6.64247 23.4981C6.64247 22.9064 7.12213 22.4268 7.71381 22.4268H15.3646L22.5607 15.2308C23.2149 14.5764 24.0143 14.1558 24.8552 13.9686V7.07092C24.8552 5.29587 23.4162 3.8569 21.6412 3.8569L19.1217 3.8561L19.1314 3.97118L19.1121 3.7779ZM10.9278 3.14268H15.9274C16.5191 3.14268 16.9987 3.62234 16.9987 4.21402C16.9987 4.80569 16.5191 5.28535 15.9274 5.28535H10.9278C10.3361 5.28535 9.85648 4.80569 9.85648 4.21402C9.85648 3.62234 10.3361 3.14268 10.9278 3.14268ZM7.71381 16.713H13.4276C14.0193 16.713 14.4989 17.1926 14.4989 17.7843C14.4989 18.376 14.0193 18.8556 13.4276 18.8556H7.71381C7.12213 18.8556 6.64247 18.376 6.64247 17.7843C6.64247 17.1926 7.12213 16.713 7.71381 16.713ZM7.71381 10.9992H19.1414C19.7331 10.9992 20.2128 11.4788 20.2128 12.0705C20.2128 12.6622 19.7331 13.1418 19.1414 13.1418H7.71381C7.12213 13.1418 6.64247 12.6622 6.64247 12.0705C6.64247 11.4788 7.12213 10.9992 7.71381 10.9992ZM23.5695 16.2409L15.138 24.6722C14.6465 25.1637 14.2978 25.7796 14.1291 26.4541L13.4753 29.0692C13.1911 30.2064 14.2213 31.2366 15.3584 30.9522L17.9735 30.2984C18.6479 30.1298 19.2638 29.7812 19.7555 29.2895L28.1868 20.8582C29.4618 19.5832 29.4618 17.5159 28.1868 16.2409C26.9118 14.9657 24.8445 14.9657 23.5695 16.2409Z" fill="#7898FF"/>
</svg>
