<svg width="26" height="26" viewBox="0 0 26 26" fill="none" xmlns="http://www.w3.org/2000/svg">
<path d="M13.4183 5C14.6131 5 15.7296 5.33385 16.6768 5.91445C16.3946 6.21416 16.1763 6.57392 16.0436 6.97231C15.2822 6.5016 14.3822 6.23044 13.4183 6.23044C10.6742 6.23044 8.45966 8.4241 8.45926 11.1522V14.7694L7.34844 17.3074H19.4954L18.3775 14.7702L18.3776 11.1627L18.3744 10.978C18.3714 10.8891 18.3659 10.8008 18.3583 10.7133C18.4994 10.7343 18.6438 10.7451 18.7908 10.7451C19.0699 10.7451 19.3397 10.7059 19.595 10.6327C19.6039 10.7365 19.6101 10.8411 19.6138 10.9463L19.6172 11.1522V14.5129L20.7578 17.1017C20.815 17.2313 20.8444 17.3711 20.8444 17.5125C20.8444 18.0788 20.3818 18.5379 19.8113 18.5379L15.8979 18.5391C15.8979 19.8982 14.7878 21 13.4183 21C12.0979 21 11.0184 19.9755 10.943 18.6837L10.9384 18.5372L7.03341 18.5379C6.89179 18.5379 6.75169 18.509 6.62181 18.453C6.09846 18.2274 5.85847 17.6234 6.08579 17.104L7.21949 14.5137V11.1521C7.21998 7.74396 9.99005 5 13.4183 5ZM14.6578 18.5372L12.1786 18.5391C12.1786 19.2187 12.7337 19.7696 13.4183 19.7696C14.0628 19.7696 14.5924 19.2816 14.6525 18.6576L14.6578 18.5372ZM16.7574 7.50795C16.836 7.07543 17.0512 6.69005 17.357 6.39742C17.7286 6.04199 18.234 5.8234 18.7908 5.8234C19.932 5.8234 20.8571 6.74154 20.8571 7.87412C20.8571 8.77085 20.2772 9.53315 19.4692 9.81176C19.2568 9.88504 19.0285 9.92486 18.7908 9.92486C18.5858 9.92486 18.3878 9.89522 18.2009 9.84003C17.3471 9.58803 16.7245 8.80323 16.7245 7.87412C16.7245 7.74914 16.7359 7.62676 16.7574 7.50795Z" fill="#888888"/>
</svg>
