<svg width="74" height="61" viewBox="0 0 74 61" fill="none" xmlns="http://www.w3.org/2000/svg">
<path d="M64 20.6667C69.523 20.6667 74 16.1896 74 10.6667C74 5.14391 69.523 0.666748 64 0.666748C59.599 0.666748 55.862 3.50978 54.5253 7.45945C54.1847 8.46625 54 9.54491 54 10.6667C54 15.2148 57.0363 19.0537 61.1923 20.2672C62.083 20.5273 63.0253 20.6667 64 20.6667ZM11.5 7.33341H49.3717C49.1283 8.40545 49 9.52111 49 10.6667C49 15.8749 51.6543 20.4632 55.684 23.1525L34 34.5111L0.720639 17.0786C1.24621 11.8091 5.54774 7.65158 10.8803 7.35085L11.5 7.33341ZM35.16 39.5481L61.9283 25.5249C62.6057 25.6184 63.297 25.6667 64 25.6667C65.1457 25.6667 66.2613 25.5383 67.3333 25.295V49.8334C67.3333 55.6101 62.8117 60.3307 57.1147 60.6497L56.5 60.6667H11.5C5.72324 60.6667 1.00251 56.1451 0.683805 50.4481L0.666672 49.8334V22.6934L32.84 39.5481C33.5667 39.9284 34.4333 39.9284 35.16 39.5481Z" fill="#7898FF"/>
</svg>
