<svg width="36" height="36" viewBox="0 0 36 36" fill="none" xmlns="http://www.w3.org/2000/svg">
<path d="M18.001 20.624C19.4507 20.624 20.626 19.4488 20.626 17.999C20.626 16.5493 19.4507 15.374 18.001 15.374C16.5512 15.374 15.376 16.5493 15.376 17.999C15.376 19.4488 16.5512 20.624 18.001 20.624Z" fill="#888888"/>
<path d="M35.308 15.059L33.9255 10.649C33.7762 10.1393 33.5258 9.66495 33.1892 9.25414C32.8527 8.84332 32.4368 8.5045 31.9664 8.25789C31.4961 8.01128 30.9809 7.86193 30.4515 7.81874C29.9222 7.77555 29.3896 7.83942 28.8855 8.00652L28.2905 8.19902C27.8244 8.3531 27.3279 8.3922 26.8434 8.31297C26.3589 8.23375 25.9008 8.03855 25.508 7.74402L25.3155 7.60402C24.9322 7.31068 24.6233 6.93136 24.4135 6.49668C24.2038 6.06199 24.0991 5.58409 24.108 5.10152V4.61152C24.1165 3.51257 23.6885 2.45516 22.918 1.67152C22.5515 1.30131 22.1155 1.00716 21.635 0.805944C21.1544 0.604731 20.6389 0.500427 20.118 0.499023H15.6555C14.5848 0.512859 13.5629 0.94911 12.8123 1.71279C12.0618 2.47648 11.6433 3.50575 11.648 4.57652V4.99652C11.6463 5.5045 11.5307 6.00562 11.3096 6.46296C11.0885 6.9203 10.7676 7.32219 10.3705 7.63902L10.143 7.81402C9.70434 8.14586 9.19128 8.36555 8.64841 8.45399C8.10554 8.54244 7.54929 8.49696 7.02799 8.32152C6.54921 8.15584 6.0418 8.08903 5.53646 8.12512C5.03112 8.16122 4.53835 8.29948 4.08799 8.53152C3.61908 8.76425 3.20309 9.09099 2.8659 9.4914C2.5287 9.89182 2.27752 10.3574 2.12799 10.859L0.692988 15.409C0.360212 16.4349 0.445553 17.5506 0.930479 18.5139C1.4154 19.4772 2.26076 20.2103 3.28299 20.554H3.56299C4.03454 20.7307 4.45777 21.0162 4.79833 21.3871C5.13888 21.7581 5.38715 22.2041 5.52299 22.689L5.62799 22.969C5.82307 23.5048 5.88831 24.0791 5.81834 24.6449C5.74837 25.2108 5.54519 25.752 5.22549 26.224C4.57837 27.1053 4.30541 28.2065 4.466 29.288C4.62658 30.3695 5.20772 31.3438 6.08299 31.999L9.70549 34.7465C10.3914 35.2452 11.22 35.5091 12.068 35.499C12.2949 35.5213 12.5235 35.5213 12.7505 35.499C13.2757 35.3974 13.7746 35.1898 14.2169 34.8889C14.6592 34.588 15.0356 34.2002 15.323 33.749L15.7255 33.1715C16.0078 32.7665 16.3814 32.4336 16.8161 32.1995C17.2508 31.9654 17.7344 31.8368 18.228 31.824C18.7452 31.8113 19.2572 31.9298 19.7163 32.1685C20.1753 32.4072 20.5664 32.7583 20.853 33.189L21.063 33.4865C21.3614 33.9306 21.7475 34.3088 22.1976 34.5981C22.6476 34.8873 23.1521 35.0813 23.68 35.1682C24.2079 35.2551 24.748 35.233 25.267 35.1033C25.786 34.9736 26.273 34.739 26.698 34.414L30.2505 31.754C31.0904 31.1017 31.649 30.1527 31.8117 29.1017C31.9744 28.0507 31.7289 26.9773 31.1255 26.1015L30.6705 25.4365C30.3969 25.0138 30.2177 24.537 30.1452 24.0386C30.0728 23.5403 30.1087 23.0322 30.2505 22.549C30.3951 22.0318 30.6634 21.5575 31.0323 21.1673C31.4013 20.777 31.8597 20.4824 32.368 20.309L32.718 20.1865C33.7307 19.8351 34.5672 19.1037 35.0505 18.1468C35.5338 17.19 35.6261 16.0827 35.308 15.059ZM18.0005 24.124C16.7891 24.124 15.6049 23.7648 14.5976 23.0918C13.5904 22.4188 12.8053 21.4622 12.3417 20.343C11.8781 19.2238 11.7568 17.9922 11.9932 16.8041C12.2295 15.616 12.8129 14.5246 13.6695 13.668C14.5261 12.8114 15.6174 12.228 16.8056 11.9917C17.9937 11.7554 19.2252 11.8767 20.3444 12.3403C21.4636 12.8038 22.4202 13.5889 23.0932 14.5962C23.7663 15.6034 24.1255 16.7876 24.1255 17.999C24.1255 19.6235 23.4802 21.1814 22.3315 22.3301C21.1829 23.4787 19.6249 24.124 18.0005 24.124Z" fill="#888888"/>
</svg>
